<svg width="129" height="104" viewBox="0 0 129 104" fill="none" xmlns="http://www.w3.org/2000/svg">
<path d="M56.2836 33.2035V66.0796H48.3746V39.56H39.545V66.0796H31.7041V33.2035H56.2836Z" fill="black"/>
<path d="M129 66.0796H121.159V39.56H116.761C116.386 46.2241 115.738 51.5212 114.852 55.4513C113.966 59.3813 112.807 62.2179 111.341 63.9949C109.875 65.772 107.932 66.6606 105.511 66.6606C104.045 66.6606 102.852 66.4555 101.897 66.0112V59.4839C102.477 59.6889 103.091 59.7914 103.704 59.7914C105.341 59.7914 106.636 57.6726 107.557 53.4691C108.477 49.2656 109.193 42.499 109.67 33.2035H128.966V66.0796H129Z" fill="black"/>
<path fill-rule="evenodd" clip-rule="evenodd" d="M59.4209 29H100.432V70.9324H59.4209V29Z" fill="#FF6600"/>
<path d="M92.2163 36.2451V63.995H84.3413V41.6105H75.4776V63.995H67.6367V36.2451H92.2163Z" fill="white"/>
<path d="M18.2386 70.9324H25.5L28.9432 59.894H24.5114V33.2035H16.6364V59.7231H7.84091V33.2035H0V66.0796H21.1364L18.2386 70.9324Z" fill="black"/>
<path d="M0.954545 74.8967V80.1938H2.72727V74.8967H3.68182V80.2621H4.19318L4.125 82.6544H3.40909L3.34091 81.014H0V74.8967H0.954545Z" fill="black"/>
<path d="M5.79546 78.0408C5.79546 79.9204 6.54546 80.3305 7.26136 80.3305C7.67046 80.3305 8.04546 80.2279 8.28409 80.0913L8.42046 80.8089C8.07955 81.014 7.56818 81.1165 7.09091 81.1165C5.625 81.1165 4.875 79.9204 4.875 78.0408C4.875 76.0586 5.69318 74.8283 6.92045 74.8283C8.18182 74.8283 8.65909 76.127 8.65909 77.5281C8.65909 77.7674 8.65909 77.9041 8.65909 78.0749H5.79546V78.0408ZM7.70455 77.3231C7.73864 76.0928 7.26136 75.546 6.78409 75.546C6.13636 75.546 5.82955 76.4687 5.79546 77.3231H7.70455Z" fill="black"/>
<path d="M10.6703 74.8967V77.494H12.4771V74.8967H13.4316V81.014H12.4771V78.3142H10.6703V81.014H9.68164V74.8967H10.6703Z" fill="black"/>
<path d="M17.9316 74.8967V75.7169H16.568V81.014H15.5794V75.7169H14.1816V74.8967H17.9316Z" fill="black"/>
<path d="M18.6474 76.8105C18.6474 75.8878 18.6133 75.341 18.6133 74.8967H19.4996L19.5337 75.6827H19.5678C19.9087 75.0334 20.386 74.7942 20.8633 74.7942C21.9201 74.7942 22.636 75.9219 22.636 77.9382C22.636 80.1938 21.7156 81.1165 20.7269 81.1165C20.1474 81.1165 19.8406 80.7406 19.6701 80.3988H19.6019V83.4404H18.6474V76.8105ZM19.6019 78.7584C19.6019 78.9635 19.6019 79.1344 19.636 79.2711C19.8406 80.1596 20.2496 80.2963 20.5224 80.2963C21.3406 80.2963 21.5792 79.1685 21.5792 77.9382C21.5792 76.6738 21.2724 75.6144 20.5224 75.6144C20.0792 75.6144 19.7042 76.1612 19.636 76.7421C19.6019 76.8788 19.6019 77.0497 19.6019 77.2206V78.7584Z" fill="black"/>
<path d="M29.3527 74.8967V81.014H28.3982V75.7169H26.6595V81.014H25.6709V74.8967H29.3527Z" fill="black"/>
<path d="M34.4661 77.9382C34.4661 80.2963 33.3752 81.1165 32.4206 81.1165C31.3297 81.1165 30.4434 80.1254 30.4434 77.9724C30.4434 75.7511 31.432 74.7942 32.4888 74.7942C33.5797 74.7942 34.4661 75.8194 34.4661 77.9382ZM31.432 77.9382C31.432 78.9635 31.6024 80.3305 32.4888 80.3305C33.307 80.3305 33.4774 78.8951 33.4774 77.9382C33.4774 77.0155 33.307 75.546 32.4547 75.546C31.6025 75.5802 31.432 77.0155 31.432 77.9382Z" fill="black"/>
<path d="M36.4431 74.8967V76.9814C36.4431 78.0408 36.4431 78.9635 36.3749 79.9204H36.409C36.6817 79.1002 37.0226 78.2458 37.2954 77.5281L38.3181 74.8625H39.3408V80.9798H38.4545V78.9635C38.4545 77.6307 38.4885 76.913 38.5567 75.9903H38.5226C38.284 76.7421 38.0454 77.4256 37.8067 78.1091C37.6022 78.6217 37.0567 80.0229 36.5795 80.9798H35.5908V74.8625H36.4431V74.8967Z" fill="black"/>
<path d="M43.6361 80.8431C43.4316 80.9798 43.0566 81.0823 42.6134 81.0823C41.2838 81.0823 40.3975 80.0229 40.3975 77.9724C40.3975 76.2295 41.2838 74.7942 42.8179 74.7942C43.1588 74.7942 43.4997 74.8967 43.6702 74.9992L43.4656 75.7852C43.3293 75.7169 43.0906 75.6144 42.7838 75.6144C41.7952 75.6144 41.3861 76.7763 41.3861 77.9724C41.3861 79.4078 41.9316 80.2621 42.8179 80.2621C43.0906 80.2621 43.2952 80.1938 43.5338 80.0912L43.6361 80.8431Z" fill="black"/>
<path d="M45.4086 74.8967V77.5623H45.545L47.1473 74.8967H48.2382L46.3291 77.6649C47.1473 77.8015 47.5905 78.5534 47.795 79.4078C47.9314 79.9204 48.1018 80.5697 48.3064 81.0481H47.3177C47.1473 80.6722 47.0109 80.1596 46.8746 79.6128C46.6359 78.7926 46.295 78.28 45.5109 78.28H45.4086V81.0481H44.4541V74.9309H45.4086V74.8967Z" fill="black"/>
<path d="M51.648 81.014L51.5798 80.3646H51.5457C51.273 80.8431 50.8639 81.1165 50.3184 81.1165C49.5003 81.1165 48.8525 80.433 48.8525 79.3736C48.8525 77.8357 50.0798 77.1522 51.4434 77.1522V76.9472C51.4434 76.127 51.2389 75.546 50.4548 75.546C50.0798 75.546 49.7389 75.6827 49.4321 75.8536L49.2275 75.1701C49.4662 74.965 50.0457 74.76 50.6594 74.76C51.8866 74.76 52.4321 75.5802 52.4321 76.9472V79.5786C52.4321 80.0571 52.4321 80.5697 52.5003 80.9798H51.648V81.014ZM51.5116 77.8357C51.0003 77.8357 49.8412 77.9382 49.8412 79.2369C49.8412 80.0229 50.2503 80.3305 50.5912 80.3305C51.0344 80.3305 51.3753 80.0229 51.5116 79.4077C51.5457 79.3052 51.5457 79.1685 51.5457 79.066V77.8357H51.5116Z" fill="black"/>
<path d="M59.4885 74.8967V81.014H58.5339V75.7169H56.7953V81.014H55.8066V74.8967H59.4885Z" fill="black"/>
<path d="M60.8525 76.8105C60.8525 75.8878 60.8184 75.341 60.8184 74.8967H61.6706L61.7388 75.6827H61.7729C62.1138 75.0334 62.5911 74.7942 63.0684 74.7942C64.1252 74.7942 64.8411 75.9219 64.8411 77.9382C64.8411 80.1938 63.9206 81.1165 62.9661 81.1165C62.3865 81.1165 62.0797 80.7406 61.9093 80.3988H61.8752V83.4404H60.8865V76.8105H60.8525ZM61.807 78.7584C61.807 78.9635 61.807 79.1344 61.8411 79.2711C62.0456 80.1596 62.4547 80.2963 62.7274 80.2963C63.5456 80.2963 63.7843 79.1685 63.7843 77.9382C63.7843 76.6738 63.4774 75.6144 62.7274 75.6144C62.2843 75.6144 61.9093 76.1612 61.8411 76.7421C61.807 76.8788 61.807 77.0497 61.807 77.2206V78.7584Z" fill="black"/>
<path d="M69.6135 77.9382C69.6135 80.2963 68.5226 81.1165 67.5681 81.1165C66.4772 81.1165 65.5908 80.1254 65.5908 77.9724C65.5908 75.7511 66.5795 74.7942 67.6363 74.7942C68.7613 74.7942 69.6135 75.8194 69.6135 77.9382ZM66.5795 77.9382C66.5795 78.9635 66.7499 80.3305 67.6363 80.3305C68.4545 80.3305 68.6249 78.8951 68.6249 77.9382C68.6249 77.0155 68.4545 75.546 67.6022 75.546C66.7499 75.5802 66.5795 77.0155 66.5795 77.9382Z" fill="black"/>
<path d="M74.3859 74.8967V81.014H73.4314V75.7169H71.6586V81.014H70.7041V74.8967H74.3859Z" fill="black"/>
<path d="M78.1705 81.014L78.1023 80.3646H78.0682C77.7955 80.8431 77.3864 81.1165 76.8409 81.1165C76.0227 81.1165 75.375 80.433 75.375 79.3736C75.375 77.8357 76.6023 77.1522 77.9659 77.1522V76.9472C77.9659 76.127 77.7614 75.546 76.9773 75.546C76.6023 75.546 76.2614 75.6827 75.9545 75.8536L75.75 75.1701C75.9886 74.965 76.5682 74.76 77.1818 74.76C78.4091 74.76 78.9545 75.5802 78.9545 76.9472V79.5786C78.9545 80.0571 78.9545 80.5697 79.0227 80.9798H78.1705V81.014ZM78.0341 77.8357C77.5227 77.8357 76.3636 77.9382 76.3636 79.2369C76.3636 80.0229 76.7727 80.3305 77.1136 80.3305C77.5568 80.3305 77.8977 80.0229 78.0341 79.4077C78.0682 79.3052 78.0682 79.1685 78.0682 79.066V77.8357H78.0341Z" fill="black"/>
<path d="M80.3525 74.9309C80.7275 74.8625 81.2388 74.7942 81.7161 74.7942C82.7388 74.7942 84.0002 75.0676 84.0002 76.2978C84.0002 77.0155 83.4888 77.5623 82.7729 77.7674V77.8015C83.6593 77.9382 84.2388 78.485 84.2388 79.3394C84.2388 80.7747 82.7729 81.1165 81.5797 81.1165C81.0002 81.1165 80.557 81.0823 80.3184 81.0481V74.9309H80.3525ZM81.2729 80.3646C81.3752 80.3646 81.5797 80.3988 81.7843 80.3988C82.5343 80.3988 83.2843 80.1254 83.2843 79.3052C83.2843 78.485 82.4661 78.1775 81.7161 78.1775H81.307V80.3646H81.2729ZM81.307 77.494H81.7502C82.3297 77.494 83.0797 77.118 83.0797 76.4687C83.0797 75.7511 82.5002 75.5118 81.8184 75.5118C81.6479 75.5118 81.4775 75.546 81.307 75.546V77.494Z" fill="black"/>
<path d="M86.2845 74.8967V80.1938H87.8868V74.8967H88.8413V80.1938H90.4436V74.8967H91.3982V81.014H85.2959V74.8967H86.2845Z" fill="black"/>
<path d="M93.6482 74.8967V76.9814C93.6482 78.0408 93.6482 78.9635 93.58 79.9204H93.6141C93.8868 79.1002 94.2618 78.2458 94.5004 77.5281L95.5232 74.8625H96.5459V80.9798H95.6595V78.9635C95.6595 77.6307 95.6936 76.913 95.7618 75.9903H95.7277C95.4891 76.7421 95.2504 77.4256 95.0118 78.1091C94.8073 78.6217 94.2618 80.0229 93.7845 80.9798H92.7959V74.8625H93.6482V74.8967Z" fill="black"/>
<path d="M98.4209 74.8967L99.0004 76.1953C99.1709 76.5371 99.2732 76.913 99.4095 77.2548H99.4436C99.58 76.8788 99.7164 76.5029 99.8527 76.1953L100.398 74.8967H101.387L99.9209 77.9041L101.353 81.014H100.296L99.7163 79.647C99.58 79.3052 99.4777 78.9977 99.3073 78.5876H99.2732C99.1368 78.9635 99.0004 79.2711 98.8641 79.647L98.2845 81.014H97.2959L98.7618 77.9382L97.3641 74.8967H98.4209Z" fill="black"/>
<path d="M107.625 74.8967V81.014H106.636V75.7169H105.307V77.6649C105.307 79.4078 105.17 80.5355 104.284 80.9798C104.079 81.0823 103.875 81.1165 103.636 81.1165L103.466 80.3305C103.704 80.2963 103.841 80.1938 103.977 80.0229C104.318 79.6812 104.386 78.7926 104.386 77.699V74.8967H107.625Z" fill="black"/>
<path d="M109.91 74.8967V77.4598H110.66C110.796 75.5802 111.682 74.7942 112.569 74.7942C113.625 74.7942 114.444 75.8194 114.444 77.9724C114.444 80.3305 113.387 81.1507 112.5 81.1507C111.512 81.1507 110.694 80.2621 110.625 78.28H109.875V81.0481H108.921V74.9309H109.91V74.8967ZM113.523 77.9382C113.523 77.0155 113.353 75.546 112.535 75.546C111.75 75.546 111.58 76.9813 111.58 77.9382C111.58 78.9635 111.785 80.3305 112.569 80.3305C113.353 80.3305 113.523 78.8951 113.523 77.9382Z" fill="black"/>
<path d="M119.216 74.8967V80.2621H119.728L119.659 82.6544H118.943L118.875 81.014H115.705L115.637 82.6544H114.887L114.853 80.2621H115.262C115.5 79.852 115.705 79.4078 115.841 78.9635C116.046 78.28 116.114 77.5282 116.114 76.708V74.8967H119.216ZM116.966 76.5713C116.966 77.4256 116.932 78.2458 116.728 78.9977C116.625 79.4419 116.455 79.852 116.216 80.228H118.262V75.6485H116.966V76.5713Z" fill="black"/>
<path d="M121.33 78.0408C121.33 79.9204 122.08 80.3305 122.796 80.3305C123.205 80.3305 123.58 80.2279 123.818 80.0913L123.955 80.8089C123.614 81.014 123.102 81.1165 122.625 81.1165C121.159 81.1165 120.409 79.9204 120.409 78.0408C120.409 76.0586 121.227 74.8283 122.455 74.8283C123.716 74.8283 124.193 76.127 124.193 77.5281C124.193 77.7674 124.193 77.9041 124.193 78.0749H121.33V78.0408ZM123.239 77.3231C123.273 76.0928 122.796 75.546 122.318 75.546C121.671 75.546 121.364 76.4687 121.33 77.3231H123.239Z" fill="black"/>
<path d="M126.102 74.8967V76.9814C126.102 78.0408 126.102 78.9635 126.034 79.9204H126.068C126.341 79.1002 126.716 78.2458 126.955 77.5282L127.977 74.8625H129V80.9798H128.114V78.9635C128.114 77.6307 128.148 76.913 128.216 75.9903H128.182C127.943 76.7421 127.705 77.4256 127.466 78.1091C127.261 78.6217 126.716 80.0229 126.239 80.9798H125.25V74.8625H126.102V74.8967ZM126.375 72.5728C126.409 73.1196 126.648 73.4272 127.125 73.4272C127.602 73.4272 127.807 73.0854 127.875 72.5728H128.557C128.455 73.5639 127.909 73.974 127.091 73.974C126.307 73.974 125.795 73.5639 125.693 72.5728H126.375Z" fill="black"/>
</svg>
