<svg width="99" height="23" viewBox="0 0 99 23" fill="none" xmlns="http://www.w3.org/2000/svg">
<path d="M7.16258 14.3252C11.1184 14.3252 14.3252 11.1184 14.3252 7.16258C14.3252 3.2068 11.1184 4.85999e-07 7.16258 3.13087e-07C3.2068 1.40174e-07 -1.40174e-07 3.2068 -3.13087e-07 7.16258C-4.85999e-07 11.1184 3.2068 14.3252 7.16258 14.3252Z" fill="url(#paint0_angular_500_4498)"/>
<path fill-rule="evenodd" clip-rule="evenodd" d="M20.9348 1.26317C21.6353 0.421057 22.7561 0 23.7368 0H25.8383H28.0799V4.07022H26.3987H24.6797C24.4243 4.07022 24.0294 4.34243 24.0294 4.77198C24.0294 5.23646 24.4243 5.47374 24.6797 5.47374H26.2586H27.6596V8.56149H26.1185H24.6797C24.3988 8.56149 24.0411 8.83854 24.0411 9.2596C24.0411 9.68066 24.3988 9.96502 24.6797 9.96502H26.2586H28.0799V14.3033H25.9784H23.8769C22.6329 14.19 21.9366 13.7109 21.567 13.4565C21.4787 13.3958 21.4091 13.3479 21.3551 13.3208C20.6546 12.7594 19.9541 11.7501 19.9541 10.5138V7.01762V3.64916C19.9541 2.93753 20.2343 2.10529 20.9348 1.26317ZM34.8993 0C30.789 0 29.9305 2.74595 29.9305 4.47982V9.39215V14.3045H34.1336V9.5325C34.1336 6.44475 34.133 4.74907 34.133 4.74907C34.133 4.34243 34.3885 3.91841 34.8993 3.91841C35.4102 3.91841 35.6865 4.34243 35.6865 4.74907C35.6865 4.74907 35.6871 6.44475 35.6871 9.5325V14.3045H39.8777V9.2518V4.47982C39.8777 2.68209 38.6437 0 34.8993 0ZM74.5962 4.74907C74.5962 5.45083 74.5962 6.714 72.915 8.25787C72.915 8.25787 72.9507 8.22483 72.7171 8.42943C72.9073 8.92409 73.6329 10.666 74.2476 12.1416L74.2481 12.1426L74.2494 12.1458L74.2499 12.147L74.25 12.1472C74.666 13.1458 75.0307 14.0214 75.1437 14.3045H72.915H71.1845H70.8013C70.035 12.708 69.1322 10.6439 68.7119 9.6614V7.83682V6.01224C69.5526 6.01224 70.3932 5.87188 70.3932 4.88942C70.3932 4.0473 69.5525 3.90695 68.852 3.90695H68.1515V14.2804H63.9485V0.117438H67.0307H70.113C73.1952 0.538495 74.5962 2.36308 74.5962 4.74907ZM44.5117 4.18766H41.4295V0.117438H51.937V4.18766H48.7147V14.3045H44.5117V4.18766ZM76.4175 4.47982C76.4175 2.74595 77.2759 0 81.3863 0C85.1306 0 86.3646 2.68209 86.3646 4.47982V9.2518V14.3045H82.174V9.5325C82.174 6.44475 82.1735 4.74907 82.1735 4.74907C82.1735 4.34243 81.8971 3.91841 81.3863 3.91841C80.8754 3.91841 80.62 4.34243 80.62 4.74907C80.62 4.74907 80.6205 6.44475 80.6205 9.5325V14.3045H76.4175V9.39215V4.47982ZM88.1533 4.47982C88.1533 2.74595 89.0118 0 93.1221 0C96.8665 0 98.1005 2.68209 98.1005 4.47982V9.2518L98.1005 9.8243C98.1005 11.622 96.8665 14.3041 93.1221 14.3041C89.0118 14.3041 88.1533 11.5582 88.1533 9.8243V4.91197V4.47982ZM93.9093 4.74907C93.9093 4.74907 93.9096 5.58005 93.9097 7.13787C93.9096 8.71397 93.9093 9.55505 93.9093 9.55505C93.9093 9.96169 93.633 10.3857 93.1221 10.3857C92.6112 10.3857 92.3558 9.96169 92.3558 9.55505L92.3558 9.53249L92.3563 9.53251L92.3562 7.13787L92.3563 4.77161L92.3558 4.77163L92.3558 4.74907C92.3558 4.34243 92.6112 3.91841 93.1221 3.91841C93.633 3.91841 93.9093 4.34243 93.9093 4.74907ZM57.1982 0C56.2175 0 55.0967 0.421057 54.3962 1.26317C53.6957 2.10529 53.4155 2.93753 53.4155 3.64916V7.01762V10.5138C53.4155 11.7501 54.116 12.7594 54.8165 13.3208C54.8705 13.3479 54.9402 13.3958 55.0284 13.4565C55.398 13.7109 56.0943 14.19 57.3383 14.3033H59.4399H61.5414V9.96502H59.7201H58.1411C57.8602 9.96502 57.5025 9.68066 57.5025 9.2596C57.5025 8.83854 57.8602 8.56149 58.1411 8.56149H59.58H61.1211V5.47374H59.7201H58.1411C57.8857 5.47374 57.4908 5.23646 57.4908 4.77198C57.4908 4.34243 57.8857 4.07022 58.1411 4.07022H59.8602H61.5414V0H59.2998H57.1982Z" fill="#243741"/>
<path d="M22.9247 19.7154V22.0985H22.6302V20.2137L21.6652 21.8085H21.5202L20.5552 20.2092V22.0985H20.2607V19.7154H20.5869L21.5973 21.4325L22.6257 19.7154H22.9247Z" fill="#243741"/>
<path d="M25.974 19.6973C26.2851 19.6973 26.5237 19.7758 26.6898 19.9329C26.8559 20.0869 26.939 20.3164 26.939 20.6215V22.0985H26.6309V21.727C26.5584 21.8508 26.4512 21.9474 26.3092 22.0169C26.1703 22.0864 26.0042 22.1211 25.8109 22.1211C25.5451 22.1211 25.3336 22.0577 25.1766 21.9308C25.0195 21.804 24.941 21.6363 24.941 21.4279C24.941 21.2256 25.0135 21.0625 25.1585 20.9386C25.3065 20.8148 25.5405 20.7529 25.8607 20.7529H26.6173V20.6079C26.6173 20.4025 26.5599 20.247 26.4451 20.1413C26.3304 20.0325 26.1627 19.9782 25.9422 19.9782C25.7912 19.9782 25.6462 20.0038 25.5073 20.0552C25.3684 20.1035 25.2491 20.1715 25.1494 20.2591L25.0044 20.0189C25.1252 19.9162 25.2702 19.8377 25.4393 19.7833C25.6085 19.726 25.7867 19.6973 25.974 19.6973ZM25.8607 21.8674C26.0419 21.8674 26.1975 21.8266 26.3273 21.7451C26.4572 21.6605 26.5539 21.5397 26.6173 21.3826V20.993H25.8698C25.462 20.993 25.2581 21.135 25.2581 21.4189C25.2581 21.5578 25.311 21.6681 25.4167 21.7496C25.5224 21.8281 25.6704 21.8674 25.8607 21.8674Z" fill="#243741"/>
<path d="M30.3369 19.6973C30.5604 19.6973 30.7628 19.7486 30.944 19.8513C31.1252 19.951 31.2672 20.0929 31.3699 20.2772C31.4726 20.4614 31.5239 20.6713 31.5239 20.9069C31.5239 21.1455 31.4726 21.357 31.3699 21.5412C31.2672 21.7254 31.1252 21.8689 30.944 21.9716C30.7658 22.0713 30.5634 22.1211 30.3369 22.1211C30.1436 22.1211 29.9684 22.0818 29.8114 22.0033C29.6573 21.9218 29.5305 21.804 29.4308 21.6499V22.9774H29.1091V19.7154H29.4172V20.1866C29.5139 20.0295 29.6407 19.9087 29.7978 19.8241C29.9579 19.7396 30.1376 19.6973 30.3369 19.6973ZM30.3143 21.8357C30.4804 21.8357 30.6314 21.7979 30.7673 21.7224C30.9032 21.6439 31.009 21.5337 31.0845 21.3917C31.163 21.2497 31.2023 21.0881 31.2023 20.9069C31.2023 20.7257 31.163 20.5656 31.0845 20.4267C31.009 20.2847 30.9032 20.1745 30.7673 20.096C30.6314 20.0174 30.4804 19.9782 30.3143 19.9782C30.1451 19.9782 29.9926 20.0174 29.8567 20.096C29.7238 20.1745 29.6181 20.2847 29.5395 20.4267C29.464 20.5656 29.4263 20.7257 29.4263 20.9069C29.4263 21.0881 29.464 21.2497 29.5395 21.3917C29.6181 21.5337 29.7238 21.6439 29.8567 21.7224C29.9926 21.7979 30.1451 21.8357 30.3143 21.8357Z" fill="#243741"/>
<path d="M34.3942 21.0383H33.8506V22.0985H33.5289V19.7154H33.8506V20.7619H34.3988L35.2369 19.7154H35.5858L34.648 20.8707L35.6537 22.0985H35.2732L34.3942 21.0383Z" fill="#243741"/>
<path d="M39.4753 21.0066H37.4818C37.4999 21.2543 37.5951 21.4551 37.7672 21.6092C37.9394 21.7602 38.1569 21.8357 38.4196 21.8357C38.5676 21.8357 38.7036 21.81 38.8274 21.7587C38.9512 21.7043 39.0585 21.6258 39.1491 21.5231L39.3303 21.7315C39.2246 21.8583 39.0917 21.955 38.9316 22.0214C38.7745 22.0879 38.6009 22.1211 38.4106 22.1211C38.1659 22.1211 37.9485 22.0698 37.7582 21.9671C37.5709 21.8614 37.4244 21.7164 37.3187 21.5321C37.213 21.3479 37.1602 21.1395 37.1602 20.9069C37.1602 20.6744 37.21 20.466 37.3097 20.2817C37.4124 20.0975 37.5513 19.954 37.7265 19.8513C37.9047 19.7486 38.104 19.6973 38.3245 19.6973C38.545 19.6973 38.7428 19.7486 38.918 19.8513C39.0932 19.954 39.2306 20.0975 39.3303 20.2817C39.43 20.4629 39.4798 20.6713 39.4798 20.9069L39.4753 21.0066ZM38.3245 19.9736C38.095 19.9736 37.9017 20.0476 37.7446 20.1956C37.5906 20.3406 37.503 20.5309 37.4818 20.7665H39.1717C39.1506 20.5309 39.0615 20.3406 38.9044 20.1956C38.7504 20.0476 38.5571 19.9736 38.3245 19.9736Z" fill="#243741"/>
<path d="M43.0758 20.0008H42.1742V22.0985H41.8526V20.0008H40.951V19.7154H43.0758V20.0008Z" fill="#243741"/>
<path d="M44.8548 19.7154H45.1764V21.6092L46.7667 19.7154H47.0521V22.0985H46.7304V20.2047L45.1447 22.0985H44.8548V19.7154Z" fill="#243741"/>
<path d="M49.2878 19.7154H49.6095V20.771H51.1091V19.7154H51.4308V22.0985H51.1091V21.0474H49.6095V22.0985H49.2878V19.7154Z" fill="#243741"/>
<path d="M55.3443 20.0008H53.9806V22.0985H53.6589V19.7154H55.3443V20.0008Z" fill="#243741"/>
<path d="M57.9956 22.1211C57.766 22.1211 57.5591 22.0698 57.3749 21.9671C57.1906 21.8614 57.0457 21.7164 56.9399 21.5321C56.8342 21.3479 56.7814 21.1395 56.7814 20.9069C56.7814 20.6744 56.8342 20.466 56.9399 20.2817C57.0457 20.0975 57.1906 19.954 57.3749 19.8513C57.5591 19.7486 57.766 19.6973 57.9956 19.6973C58.2251 19.6973 58.432 19.7486 58.6162 19.8513C58.8005 19.954 58.944 20.0975 59.0466 20.2817C59.1524 20.466 59.2052 20.6744 59.2052 20.9069C59.2052 21.1395 59.1524 21.3479 59.0466 21.5321C58.944 21.7164 58.8005 21.8614 58.6162 21.9671C58.432 22.0698 58.2251 22.1211 57.9956 22.1211ZM57.9956 21.8357C58.1647 21.8357 58.3157 21.7979 58.4486 21.7224C58.5845 21.6439 58.6902 21.5337 58.7657 21.3917C58.8413 21.2497 58.879 21.0881 58.879 20.9069C58.879 20.7257 58.8413 20.5641 58.7657 20.4222C58.6902 20.2802 58.5845 20.1715 58.4486 20.096C58.3157 20.0174 58.1647 19.9782 57.9956 19.9782C57.8264 19.9782 57.6739 20.0174 57.538 20.096C57.4051 20.1715 57.2994 20.2802 57.2208 20.4222C57.1453 20.5641 57.1076 20.7257 57.1076 20.9069C57.1076 21.0881 57.1453 21.2497 57.2208 21.3917C57.2994 21.5337 57.4051 21.6439 57.538 21.7224C57.6739 21.7979 57.8264 21.8357 57.9956 21.8357Z" fill="#243741"/>
<path d="M62.7243 20.8661C63.0475 20.9417 63.2091 21.1365 63.2091 21.4506C63.2091 21.659 63.132 21.8191 62.978 21.9308C62.824 22.0426 62.5944 22.0985 62.2894 22.0985H61.2066V19.7154H62.2576C62.5295 19.7154 62.7424 19.7682 62.8965 19.874C63.0505 19.9797 63.1275 20.1307 63.1275 20.327C63.1275 20.4569 63.0913 20.5686 63.0188 20.6623C62.9493 20.7529 62.8511 20.8208 62.7243 20.8661ZM61.5192 20.7755H62.235C62.4192 20.7755 62.5597 20.7408 62.6563 20.6713C62.756 20.6019 62.8058 20.5007 62.8058 20.3678C62.8058 20.2349 62.756 20.1352 62.6563 20.0688C62.5597 20.0023 62.4192 19.9691 62.235 19.9691H61.5192V20.7755ZM62.2758 21.8448C62.4812 21.8448 62.6352 21.8115 62.7379 21.7451C62.8406 21.6786 62.8919 21.5744 62.8919 21.4325C62.8919 21.2905 62.8451 21.1863 62.7515 21.1199C62.6578 21.0504 62.5098 21.0157 62.3075 21.0157H61.5192V21.8448H62.2758Z" fill="#243741"/>
<path d="M66.0968 19.6973C66.4079 19.6973 66.6465 19.7758 66.8127 19.9329C66.9788 20.0869 67.0618 20.3164 67.0618 20.6215V22.0985H66.7538V21.727C66.6813 21.8508 66.574 21.9474 66.4321 22.0169C66.2932 22.0864 66.127 22.1211 65.9337 22.1211C65.6679 22.1211 65.4565 22.0577 65.2994 21.9308C65.1424 21.804 65.0639 21.6363 65.0639 21.4279C65.0639 21.2256 65.1364 21.0625 65.2813 20.9386C65.4293 20.8148 65.6634 20.7529 65.9836 20.7529H66.7402V20.6079C66.7402 20.4025 66.6828 20.247 66.568 20.1413C66.4532 20.0325 66.2856 19.9782 66.0651 19.9782C65.9141 19.9782 65.7691 20.0038 65.6302 20.0552C65.4912 20.1035 65.3719 20.1715 65.2723 20.2591L65.1273 20.0189C65.2481 19.9162 65.3931 19.8377 65.5622 19.7833C65.7314 19.726 65.9096 19.6973 66.0968 19.6973ZM65.9836 21.8674C66.1648 21.8674 66.3203 21.8266 66.4502 21.7451C66.5801 21.6605 66.6767 21.5397 66.7402 21.3826V20.993H65.9926C65.5849 20.993 65.381 21.135 65.381 21.4189C65.381 21.5578 65.4339 21.6681 65.5396 21.7496C65.6453 21.8281 65.7933 21.8674 65.9836 21.8674Z" fill="#243741"/>
<path d="M71.0624 19.7154V22.0985H70.7679V21.3101H70.0203H69.9297L69.377 22.0985H69.0281L69.6216 21.2648C69.4374 21.2135 69.2954 21.1259 69.1958 21.0021C69.0961 20.8782 69.0463 20.7212 69.0463 20.5309C69.0463 20.2651 69.1369 20.0627 69.3181 19.9238C69.4993 19.7849 69.747 19.7154 70.0611 19.7154H71.0624ZM69.3725 20.5399C69.3725 20.8933 69.5975 21.07 70.0475 21.07H70.7679V20.0008H70.0702C69.605 20.0008 69.3725 20.1805 69.3725 20.5399Z" fill="#243741"/>
<path d="M77.4784 20.0008H76.1147V22.0985H75.793V19.7154H77.4784V20.0008Z" fill="#243741"/>
<path d="M80.4849 19.6973C80.7084 19.6973 80.9108 19.7486 81.092 19.8513C81.2732 19.951 81.4152 20.0929 81.5179 20.2772C81.6206 20.4614 81.6719 20.6713 81.6719 20.9069C81.6719 21.1455 81.6206 21.357 81.5179 21.5412C81.4152 21.7254 81.2732 21.8689 81.092 21.9716C80.9138 22.0713 80.7114 22.1211 80.4849 22.1211C80.2916 22.1211 80.1164 22.0818 79.9594 22.0033C79.8053 21.9218 79.6785 21.804 79.5788 21.6499V22.9774H79.2571V19.7154H79.5652V20.1866C79.6618 20.0295 79.7887 19.9087 79.9458 19.8241C80.1058 19.7396 80.2855 19.6973 80.4849 19.6973ZM80.4622 21.8357C80.6284 21.8357 80.7794 21.7979 80.9153 21.7224C81.0512 21.6439 81.1569 21.5337 81.2324 21.3917C81.311 21.2497 81.3502 21.0881 81.3502 20.9069C81.3502 20.7257 81.311 20.5656 81.2324 20.4267C81.1569 20.2847 81.0512 20.1745 80.9153 20.096C80.7794 20.0174 80.6284 19.9782 80.4622 19.9782C80.2931 19.9782 80.1406 20.0174 80.0047 20.096C79.8718 20.1745 79.766 20.2847 79.6875 20.4267C79.612 20.5656 79.5742 20.7257 79.5742 20.9069C79.5742 21.0881 79.612 21.2497 79.6875 21.3917C79.766 21.5337 79.8718 21.6439 80.0047 21.7224C80.1406 21.7979 80.2931 21.8357 80.4622 21.8357Z" fill="#243741"/>
<path d="M85.6357 19.7154L84.4441 22.3839C84.3475 22.6074 84.2357 22.766 84.1089 22.8596C83.982 22.9532 83.8295 23 83.6513 23C83.5365 23 83.4293 22.9819 83.3296 22.9457C83.2299 22.9094 83.1439 22.8551 83.0714 22.7826L83.2209 22.5425C83.3417 22.6633 83.4867 22.7237 83.6558 22.7237C83.7646 22.7237 83.8567 22.6935 83.9322 22.6331C84.0107 22.5727 84.0832 22.47 84.1497 22.325L84.2539 22.0939L83.1892 19.7154H83.5244L84.4215 21.7405L85.3185 19.7154H85.6357Z" fill="#243741"/>
<path d="M89.5891 19.7154V22.0985H89.2675V20.0008H87.7724V22.0985H87.4507V19.7154H89.5891Z" fill="#243741"/>
<path d="M93.9558 19.7154V22.0985H93.6341V20.0008H92.1391V22.0985H91.8174V19.7154H93.9558Z" fill="#243741"/>
<path d="M97.0041 19.6973C97.3152 19.6973 97.5538 19.7758 97.7199 19.9329C97.886 20.0869 97.9691 20.3164 97.9691 20.6215V22.0985H97.661V21.727C97.5885 21.8508 97.4813 21.9474 97.3394 22.0169C97.2004 22.0864 97.0343 22.1211 96.841 22.1211C96.5752 22.1211 96.3638 22.0577 96.2067 21.9308C96.0497 21.804 95.9711 21.6363 95.9711 21.4279C95.9711 21.2256 96.0436 21.0625 96.1886 20.9386C96.3366 20.8148 96.5707 20.7529 96.8908 20.7529H97.6474V20.6079C97.6474 20.4025 97.59 20.247 97.4753 20.1413C97.3605 20.0325 97.1929 19.9782 96.9724 19.9782C96.8214 19.9782 96.6764 20.0038 96.5374 20.0552C96.3985 20.1035 96.2792 20.1715 96.1795 20.2591L96.0346 20.0189C96.1554 19.9162 96.3003 19.8377 96.4695 19.7833C96.6386 19.726 96.8168 19.6973 97.0041 19.6973ZM96.8908 21.8674C97.0721 21.8674 97.2276 21.8266 97.3575 21.7451C97.4874 21.6605 97.584 21.5397 97.6474 21.3826V20.993H96.8999C96.4921 20.993 96.2883 21.135 96.2883 21.4189C96.2883 21.5578 96.3411 21.6681 96.4468 21.7496C96.5525 21.8281 96.7005 21.8674 96.8908 21.8674Z" fill="#243741"/>
<defs>
<radialGradient id="paint0_angular_500_4498" cx="0" cy="0" r="1" gradientUnits="userSpaceOnUse" gradientTransform="translate(7.16258 7.16258) rotate(-45.8125) scale(7.11286)">
<stop stop-color="#FF4C14"/>
<stop offset="1" stop-color="#FA9170"/>
</radialGradient>
</defs>
</svg>
