<svg width="120" height="60" viewBox="0 0 120 60" fill="none" xmlns="http://www.w3.org/2000/svg">
<path d="M0.742188 37.25H4.09484V56.628H14.426V59.9877H0.742188V37.25Z" fill="#F98414"/>
<path d="M16.6466 43.711H20.0042V59.9877H16.6466V43.711ZM16.2344 37.25H20.3668V41.4348H16.2344V37.25Z" fill="#F98414"/>
<path d="M32.8613 47.0697H22.9424V43.71H37.9176V46.4484L27.954 56.6319H37.9176V59.9867H22.9424V57.2482L32.8613 47.0697Z" fill="#F98414"/>
<path d="M41.5336 47.0725V43.7178H50.3101C53.5833 43.7178 55.2174 45.3529 55.2174 48.6281V55.0891C55.2174 58.3594 53.5833 59.9995 50.3101 59.9995H45.1495C41.8813 59.9995 40.2422 58.3643 40.2422 55.0891V55.0344C40.2422 51.794 41.8813 50.1788 45.1495 50.1788H50.8316V53.5385H45.1495C44.1164 53.5385 43.5998 54.0404 43.5998 55.0344V55.0891C43.5998 56.1179 44.1164 56.6397 45.1495 56.6397H50.3101C51.3432 56.6397 51.8598 56.1179 51.8598 55.0891V48.6281C51.8598 47.5944 51.3432 47.0775 50.3101 47.0775H41.5336V47.0725Z" fill="#F98414"/>
<path d="M65.3906 51.4592H70.889L67.4568 42.6027L60.6671 59.9877H57.0264L66.0611 37.25H68.8774L77.9668 59.9877H74.3012L72.235 54.8189H64.0496L65.3906 51.4592Z" fill="#F98414"/>
<path d="M83.131 37.25H79.7734V59.9877H83.131V37.25Z" fill="#F98414"/>
<path d="M99.3997 56.627V59.9868H90.6182C87.35 59.9868 85.7109 58.3516 85.7109 55.0764V48.6154C85.7109 45.3452 87.345 43.7051 90.6182 43.7051H95.7838C99.052 43.7051 100.691 45.3402 100.691 48.6154V48.6651C100.691 51.9055 99.052 53.5258 95.7838 53.5258H90.1017V50.1661H95.7838C96.8169 50.1661 97.3335 49.6641 97.3335 48.6651V48.6154C97.3335 47.5817 96.8169 47.0648 95.7838 47.0648H90.6182C89.5851 47.0648 89.0735 47.5817 89.0735 48.6154V55.0764C89.0735 56.1052 89.5851 56.6221 90.6182 56.6221H99.3997V56.627Z" fill="#F98414"/>
<path d="M106.368 59.9868H103.011V48.6154C103.011 45.3452 104.645 43.7051 107.918 43.7051H110.238V47.0598H107.918C106.885 47.0598 106.368 47.5767 106.368 48.6105V59.9868Z" fill="#F98414"/>
<path d="M112.05 43.711H113.341V37.25H116.515V43.711H119.277V47.0707H116.515V59.9877H113.341V47.0707H112.05V43.711Z" fill="#F98414"/>
<path d="M17.3205 13.5811C15.3933 14.7838 13.7493 16.0909 12.1201 17.2737L16.8238 19.6842C18.3337 18.5809 19.933 17.4825 21.6317 16.4089L17.3205 13.5811Z" fill="#F98414"/>
<path d="M26.6629 8.33398C24.0553 9.5566 21.7705 10.8936 19.5205 12.2106L23.5288 15.2522C25.5901 14.0246 27.6563 12.9064 29.9609 11.808L26.6629 8.33398Z" fill="#F98414"/>
<path d="M11.2044 24.29C12.4114 23.2463 13.6531 22.0883 15.0538 21.0098L10.1167 18.8379C8.51237 20.0754 7.09184 21.4919 5.82031 22.5952L11.2044 24.29Z" fill="#F98414"/>
<path d="M3.97513 24.2314C1.9983 26.3338 1.11915 27.2979 0.195312 28.2919L5.95194 29.4897C6.99499 28.4162 8.21188 27.0991 9.55791 25.8616L3.97513 24.2314Z" fill="#F98414"/>
<path d="M119.072 29.5168C108.507 4.60723 69.6464 -7.52446 34.5999 4.96512C32.6678 5.65594 30.8152 6.38649 29.042 7.15684L32.0917 10.8197C33.9244 10.0096 37.5205 8.50869 39.4973 7.85762C69.9742 -2.19169 105.756 6.799 116.335 29.5218H119.072V29.5168Z" fill="#F98414"/>
<path d="M56.2476 39.2287L53.7344 37.6881L86.1086 10.542L56.2476 39.2287Z" fill="#F98414"/>
<path d="M58.9844 36.5968L56.2476 39.2259L27.3701 20.8916L58.9844 36.5968Z" fill="#F98414"/>
</svg>
