<svg width="143" height="60" viewBox="0 0 143 60" fill="none" xmlns="http://www.w3.org/2000/svg">
<g clip-path="url(#clip0_500_4538)">
<path d="M62.0301 4.63281V40.865H53.3136V11.6382H43.5827V40.865H34.9414V4.63281H62.0301Z" fill="black"/>
<path d="M142.169 40.865H133.527V11.6382H128.681C128.267 18.9826 127.554 24.8204 126.577 29.1517C125.6 33.483 124.323 36.6091 122.707 38.5676C121.091 40.5261 118.95 41.5053 116.282 41.5053C114.667 41.5053 113.352 41.2793 112.3 40.7897V33.596C112.939 33.822 113.615 33.935 114.291 33.935C116.094 33.935 117.522 31.5998 118.537 26.9672C119.551 22.3346 120.34 14.8773 120.866 4.63281H142.131V40.865H142.169Z" fill="black"/>
<path fill-rule="evenodd" clip-rule="evenodd" d="M65.4863 0H110.684V46.213H65.4863V0Z" fill="#FF6600"/>
<path d="M101.63 7.98438V38.5671H92.9508V13.8975H83.1823V38.5671H74.541V7.98438H101.63Z" fill="white"/>
<path d="M20.1005 46.2132H28.1031L31.8978 34.0479H27.0136V4.63281H18.3347V33.8596H8.64133V4.63281H0V40.865H23.294L20.1005 46.2132Z" fill="black"/>
<path d="M1.05199 50.582V56.4199H3.00568V50.582H4.05767V56.4952H4.62124L4.54609 59.1316H3.7571L3.68196 57.3238H0V50.582H1.05199Z" fill="black"/>
<path d="M6.38746 54.0462C6.38746 56.1177 7.21403 56.5697 8.00302 56.5697C8.45387 56.5697 8.86715 56.4567 9.13015 56.306L9.28043 57.097C8.90472 57.3229 8.34116 57.4359 7.81516 57.4359C6.19961 57.4359 5.37305 56.1177 5.37305 54.0462C5.37305 51.8617 6.27475 50.5059 7.62731 50.5059C9.01744 50.5059 9.54343 51.9371 9.54343 53.4813C9.54343 53.7449 9.54343 53.8956 9.54343 54.0839H6.38746V54.0462ZM8.49144 53.2553C8.52901 51.8994 8.00302 51.2968 7.47702 51.2968C6.76318 51.2968 6.42504 52.3137 6.38746 53.2553H8.49144Z" fill="black"/>
<path d="M11.7595 50.582V53.4444H13.7507V50.582H14.8027V57.3238H13.7507V54.3484H11.7595V57.3238H10.6699V50.582H11.7595Z" fill="black"/>
<path d="M19.7627 50.582V51.486H18.2599V57.3238H17.1703V51.486H15.6299V50.582H19.7627Z" fill="black"/>
<path d="M20.5512 52.6909C20.5512 51.674 20.5137 51.0714 20.5137 50.5817H21.4905L21.5281 51.448H21.5657C21.9414 50.7324 22.4674 50.4688 22.9934 50.4688C24.1581 50.4688 24.9471 51.7116 24.9471 53.9338C24.9471 56.4196 23.9326 57.4365 22.8431 57.4365C22.2044 57.4365 21.8662 57.0222 21.6784 56.6456H21.6032V59.9976H20.5512V52.6909ZM21.6032 54.8377C21.6032 55.0637 21.6032 55.252 21.6408 55.4027C21.8662 56.3819 22.3171 56.5326 22.6176 56.5326C23.5194 56.5326 23.7824 55.2897 23.7824 53.9338C23.7824 52.5402 23.4442 51.3727 22.6176 51.3727C22.1292 51.3727 21.7159 51.9753 21.6408 52.6156C21.6032 52.7662 21.6032 52.9545 21.6032 53.1429V54.8377Z" fill="black"/>
<path d="M32.3487 50.582V57.3238H31.2967V51.486H29.3806V57.3238H28.291V50.582H32.3487Z" fill="black"/>
<path d="M37.9842 53.9338C37.9842 56.5326 36.7819 57.4365 35.7299 57.4365C34.5276 57.4365 33.5508 56.3442 33.5508 53.9714C33.5508 51.5233 34.6403 50.4688 35.805 50.4688C37.0073 50.4688 37.9842 51.5987 37.9842 53.9338ZM34.6403 53.9338C34.6403 55.0637 34.8282 56.5702 35.805 56.5702C36.7067 56.5702 36.8946 54.9884 36.8946 53.9338C36.8946 52.9169 36.7067 51.2973 35.7675 51.2973C34.8282 51.335 34.6403 52.9169 34.6403 53.9338Z" fill="black"/>
<path d="M40.1639 50.5816V52.8791C40.1639 54.0466 40.1639 55.0636 40.0887 56.1181H40.1263C40.4269 55.2142 40.8026 54.2726 41.1032 53.4817L42.2303 50.5439H43.3574V57.2857H42.3806V55.0636C42.3806 53.5947 42.4181 52.8038 42.4933 51.7868H42.4557C42.1927 52.6154 41.9297 53.3687 41.6667 54.122C41.4413 54.6869 40.8402 56.2311 40.3142 57.2857H39.2246V50.5439H40.1639V50.5816Z" fill="black"/>
<path d="M48.0907 57.1352C47.8653 57.2858 47.452 57.3988 46.9636 57.3988C45.4983 57.3988 44.5215 56.2313 44.5215 53.9714C44.5215 52.0506 45.4983 50.4688 47.189 50.4688C47.5647 50.4688 47.9404 50.5817 48.1283 50.6947L47.9029 51.561C47.7526 51.4857 47.4896 51.3727 47.1515 51.3727C46.0619 51.3727 45.611 52.6532 45.611 53.9714C45.611 55.5533 46.2122 56.4949 47.189 56.4949C47.4896 56.4949 47.715 56.4196 47.978 56.3066L48.0907 57.1352Z" fill="black"/>
<path d="M50.0442 50.582V53.5198H50.1945L51.9603 50.582H53.1626L51.0586 53.6328C51.9603 53.7834 52.4487 54.612 52.6742 55.5536C52.8244 56.1186 53.0123 56.8342 53.2377 57.3614H52.1482C51.9603 56.9471 51.81 56.3822 51.6597 55.7796C51.3967 54.8757 51.021 54.3107 50.1569 54.3107H50.0442V57.3614H48.9922V50.6197H50.0442V50.582Z" fill="black"/>
<path d="M56.9197 57.3231L56.8446 56.6075H56.807C56.5064 57.1347 56.0556 57.4361 55.4544 57.4361C54.5527 57.4361 53.8389 56.6828 53.8389 55.5152C53.8389 53.8204 55.1914 53.0671 56.6943 53.0671V52.8411C56.6943 51.9372 56.4688 51.2969 55.6047 51.2969C55.1914 51.2969 54.8157 51.4476 54.4776 51.6359L54.2521 50.8826C54.5151 50.6566 55.1539 50.4307 55.8301 50.4307C57.1827 50.4307 57.7838 51.3346 57.7838 52.8411V55.7412C57.7838 56.2685 57.7838 56.8334 57.859 57.2854H56.9197V57.3231ZM56.7694 53.8204C56.2058 53.8204 54.9284 53.9334 54.9284 55.3646C54.9284 56.2308 55.3793 56.5698 55.755 56.5698C56.2434 56.5698 56.6191 56.2308 56.7694 55.5529C56.807 55.4399 56.807 55.2892 56.807 55.1763V53.8204H56.7694Z" fill="black"/>
<path d="M65.5616 50.582V57.3238H64.5096V51.486H62.5935V57.3238H61.5039V50.582H65.5616Z" fill="black"/>
<path d="M67.0639 52.6909C67.0639 51.674 67.0264 51.0714 67.0264 50.5817H67.9656L68.0408 51.448H68.0784C68.4541 50.7324 68.9801 50.4688 69.5061 50.4688C70.6708 50.4688 71.4597 51.7116 71.4597 53.9338C71.4597 56.4196 70.4453 57.4365 69.3933 57.4365C68.7546 57.4365 68.4165 57.0222 68.2286 56.6456H68.1911V59.9976H67.1015V52.6909H67.0639ZM68.1159 54.8377C68.1159 55.0637 68.1159 55.252 68.1535 55.4027C68.3789 56.3819 68.8298 56.5326 69.1303 56.5326C70.032 56.5326 70.295 55.2897 70.295 53.9338C70.295 52.5402 69.9569 51.3727 69.1303 51.3727C68.6419 51.3727 68.2286 51.9753 68.1535 52.6156C68.1159 52.7662 68.1159 52.9545 68.1159 53.1429V54.8377Z" fill="black"/>
<path d="M76.7205 53.9338C76.7205 56.5326 75.5182 57.4365 74.4662 57.4365C73.264 57.4365 72.2871 56.3442 72.2871 53.9714C72.2871 51.5233 73.3767 50.4688 74.5414 50.4688C75.7812 50.4688 76.7205 51.5987 76.7205 53.9338ZM73.3767 53.9338C73.3767 55.0637 73.5645 56.5702 74.5414 56.5702C75.4431 56.5702 75.6309 54.9884 75.6309 53.9338C75.6309 52.9169 75.4431 51.2973 74.5038 51.2973C73.5645 51.335 73.3767 52.9169 73.3767 53.9338Z" fill="black"/>
<path d="M81.9795 50.582V57.3238H80.9276V51.486H78.9739V57.3238H77.9219V50.582H81.9795Z" fill="black"/>
<path d="M86.1502 57.3231L86.075 56.6075H86.0374C85.7369 57.1347 85.286 57.4361 84.6849 57.4361C83.7832 57.4361 83.0693 56.6828 83.0693 55.5152C83.0693 53.8204 84.4219 53.0671 85.9247 53.0671V52.8411C85.9247 51.9372 85.6993 51.2969 84.8352 51.2969C84.4219 51.2969 84.0462 51.4476 83.708 51.6359L83.4826 50.8826C83.7456 50.6566 84.3843 50.4307 85.0606 50.4307C86.4132 50.4307 87.0143 51.3346 87.0143 52.8411V55.7412C87.0143 56.2685 87.0143 56.8334 87.0894 57.2854H86.1502V57.3231ZM85.9999 53.8204C85.4363 53.8204 84.1589 53.9334 84.1589 55.3646C84.1589 56.2308 84.6097 56.5698 84.9855 56.5698C85.4739 56.5698 85.8496 56.2308 85.9999 55.5529C86.0374 55.4399 86.0374 55.2892 86.0374 55.1763V53.8204H85.9999Z" fill="black"/>
<path d="M88.5552 50.6194C88.9684 50.5441 89.532 50.4688 90.058 50.4688C91.1851 50.4688 92.5752 50.7701 92.5752 52.1259C92.5752 52.9169 92.0117 53.5195 91.2227 53.7455V53.7831C92.1995 53.9338 92.8382 54.5364 92.8382 55.478C92.8382 57.0598 91.2227 57.4365 89.9077 57.4365C89.269 57.4365 88.7806 57.3988 88.5176 57.3612V50.6194H88.5552ZM89.5696 56.6079C89.6823 56.6079 89.9077 56.6456 90.1331 56.6456C90.9597 56.6456 91.7863 56.3442 91.7863 55.4403C91.7863 54.5364 90.8846 54.1974 90.058 54.1974H89.6071V56.6079H89.5696ZM89.6071 53.4442H90.0956C90.7343 53.4442 91.5608 53.0299 91.5608 52.3143C91.5608 51.5233 90.9221 51.2597 90.1707 51.2597C89.9828 51.2597 89.795 51.2973 89.6071 51.2973V53.4442Z" fill="black"/>
<path d="M95.0925 50.582V56.4199H96.8583V50.582H97.9103V56.4199H99.6762V50.582H100.728V57.3238H94.0029V50.582H95.0925Z" fill="black"/>
<path d="M103.208 50.5816V52.8791C103.208 54.0466 103.208 55.0636 103.133 56.1181H103.17C103.471 55.2142 103.884 54.2726 104.147 53.4817L105.274 50.5439H106.401V57.2857H105.425V55.0636C105.425 53.5947 105.462 52.8038 105.537 51.7868H105.5C105.237 52.6154 104.974 53.3687 104.711 54.122C104.485 54.6869 103.884 56.2311 103.358 57.2857H102.269V50.5439H103.208V50.5816Z" fill="black"/>
<path d="M108.467 50.582L109.106 52.0132C109.294 52.3899 109.407 52.8042 109.557 53.1808H109.595C109.745 52.7665 109.895 52.3522 110.045 52.0132L110.647 50.582H111.736L110.121 53.8964L111.698 57.3238H110.534L109.895 55.8172C109.745 55.4406 109.632 55.1016 109.444 54.6497H109.407C109.256 55.064 109.106 55.4029 108.956 55.8172L108.317 57.3238H107.228L108.843 53.9341L107.303 50.582H108.467Z" fill="black"/>
<path d="M118.612 50.582V57.3238H117.522V51.486H116.057V53.6328C116.057 55.5536 115.907 56.7965 114.93 57.2861C114.705 57.3991 114.479 57.4368 114.216 57.4368L114.028 56.5705C114.291 56.5329 114.442 56.4199 114.592 56.2315C114.968 55.8549 115.043 54.8757 115.043 53.6704V50.582H118.612Z" fill="black"/>
<path d="M121.129 50.5817V53.4065H121.955C122.105 51.335 123.082 50.4688 124.059 50.4688C125.224 50.4688 126.126 51.5987 126.126 53.9714C126.126 56.5702 124.961 57.4741 123.984 57.4741C122.894 57.4741 121.993 56.4949 121.918 54.3104H121.091V57.3612H120.039V50.6194H121.129V50.5817ZM125.111 53.9338C125.111 52.9169 124.923 51.2973 124.022 51.2973C123.157 51.2973 122.97 52.8792 122.97 53.9338C122.97 55.0637 123.195 56.5702 124.059 56.5702C124.923 56.5702 125.111 54.9884 125.111 53.9338Z" fill="black"/>
<path d="M131.386 50.582V56.4952H131.95L131.875 59.1316H131.086L131.011 57.3238H127.516L127.441 59.1316H126.615L126.577 56.4952H127.028C127.291 56.0432 127.516 55.5536 127.667 55.064C127.892 54.3107 127.967 53.4821 127.967 52.5782V50.582H131.386ZM128.907 52.4275C128.907 53.3691 128.869 54.273 128.644 55.1016C128.531 55.5913 128.343 56.0432 128.08 56.4575H130.334V51.4106H128.907V52.4275Z" fill="black"/>
<path d="M133.716 54.0462C133.716 56.1177 134.542 56.5697 135.331 56.5697C135.782 56.5697 136.195 56.4567 136.458 56.306L136.609 57.097C136.233 57.3229 135.669 57.4359 135.143 57.4359C133.528 57.4359 132.701 56.1177 132.701 54.0462C132.701 51.8617 133.603 50.5059 134.955 50.5059C136.346 50.5059 136.872 51.9371 136.872 53.4813C136.872 53.7449 136.872 53.8956 136.872 54.0839H133.716V54.0462ZM135.82 53.2553C135.857 51.8994 135.331 51.2968 134.805 51.2968C134.091 51.2968 133.753 52.3137 133.716 53.2553H135.82Z" fill="black"/>
<path d="M138.975 50.5816V52.8791C138.975 54.0467 138.975 55.0636 138.9 56.1181H138.938C139.238 55.2142 139.652 54.2726 139.915 53.4817L141.042 50.544H142.169V57.2857H141.192V55.0636C141.192 53.5947 141.23 52.8038 141.305 51.7868H141.267C141.004 52.6154 140.741 53.3687 140.478 54.122C140.253 54.6869 139.652 56.2311 139.126 57.2857H138.036V50.544H138.975V50.5816ZM139.276 48.0205C139.314 48.6231 139.577 48.9621 140.103 48.9621C140.629 48.9621 140.854 48.5855 140.929 48.0205H141.681C141.568 49.1127 140.967 49.5647 140.065 49.5647C139.201 49.5647 138.637 49.1127 138.525 48.0205H139.276Z" fill="black"/>
</g>
<defs>
<clipPath id="clip0_500_4538">
<rect width="142.169" height="59.9978" fill="white"/>
</clipPath>
</defs>
</svg>
