<svg width="652" height="80" viewBox="0 0 652 80" fill="none" xmlns="http://www.w3.org/2000/svg">
<path d="M633.677 46.347L645.709 26.1084H651.88V56.0549H645.709V35.8163L633.677 56.0549H627.507V26.1084H633.677V46.347Z" fill="white"/>
<path d="M613.74 26.1084V56.0549H607.59V26.1084H613.74ZM622.954 26.1084V30.9418H598.52V26.1084H622.954Z" fill="white"/>
<path d="M589.499 46.121H595.649C595.526 48.1366 594.97 49.926 593.983 51.4892C593.01 53.0523 591.645 54.2727 589.89 55.1502C588.149 56.0278 586.051 56.4665 583.597 56.4665C581.677 56.4665 579.956 56.1375 578.434 55.4793C576.912 54.8074 575.609 53.8476 574.526 52.5998C573.457 51.3521 572.641 49.8438 572.079 48.0749C571.516 46.3061 571.235 44.3248 571.235 42.1309V40.0536C571.235 37.8597 571.523 35.8783 572.099 34.1095C572.689 32.327 573.525 30.8118 574.608 29.564C575.705 28.3163 577.015 27.3564 578.537 26.6846C580.059 26.0127 581.759 25.6768 583.638 25.6768C586.133 25.6768 588.238 26.1292 589.952 27.0342C591.68 27.9392 593.017 29.187 593.963 30.7775C594.922 32.3681 595.498 34.1781 595.69 36.2074H589.52C589.451 35.0008 589.211 33.9792 588.8 33.1428C588.389 32.2927 587.765 31.6551 586.928 31.23C586.106 30.7912 585.009 30.5719 583.638 30.5719C582.609 30.5719 581.711 30.7638 580.943 31.1478C580.175 31.5317 579.531 32.1144 579.01 32.896C578.489 33.6776 578.098 34.6648 577.838 35.8577C577.591 37.037 577.467 38.4219 577.467 40.0124V42.1309C577.467 43.6803 577.584 45.0446 577.817 46.2238C578.05 47.3893 578.407 48.3766 578.887 49.1856C579.38 49.9809 580.011 50.5842 580.779 50.9955C581.56 51.3932 582.5 51.592 583.597 51.592C584.885 51.592 585.948 51.3863 586.785 50.975C587.621 50.5636 588.259 49.9535 588.697 49.1445C589.15 48.3355 589.417 47.3276 589.499 46.121Z" fill="white"/>
<path d="M566.434 40.3826V41.8017C566.434 44.0779 566.125 46.121 565.508 47.9309C564.891 49.7409 564.02 51.2834 562.896 52.5586C561.772 53.8201 560.428 54.7868 558.865 55.4587C557.315 56.1305 555.594 56.4665 553.702 56.4665C551.824 56.4665 550.103 56.1305 548.54 55.4587C546.99 54.7868 545.647 53.8201 544.508 52.5586C543.37 51.2834 542.486 49.7409 541.855 47.9309C541.238 46.121 540.93 44.0779 540.93 41.8017V40.3826C540.93 38.0927 541.238 36.0497 541.855 34.2534C542.472 32.4435 543.343 30.9009 544.467 29.6257C545.605 28.3505 546.949 27.377 548.499 26.7051C550.062 26.0332 551.783 25.6973 553.661 25.6973C555.553 25.6973 557.274 26.0332 558.824 26.7051C560.387 27.377 561.73 28.3505 562.855 29.6257C563.993 30.9009 564.87 32.4435 565.487 34.2534C566.118 36.0497 566.434 38.0927 566.434 40.3826ZM560.202 41.8017V40.3414C560.202 38.7509 560.058 37.3523 559.77 36.1456C559.482 34.939 559.057 33.9243 558.494 33.1016C557.932 32.2789 557.247 31.6619 556.438 31.2505C555.629 30.8255 554.703 30.6129 553.661 30.6129C552.619 30.6129 551.693 30.8255 550.884 31.2505C550.089 31.6619 549.41 32.2789 548.848 33.1016C548.3 33.9243 547.882 34.939 547.594 36.1456C547.306 37.3523 547.162 38.7509 547.162 40.3414V41.8017C547.162 43.3786 547.306 44.7772 547.594 45.9975C547.882 47.2042 548.307 48.2257 548.869 49.0621C549.431 49.8848 550.117 50.5087 550.926 50.9338C551.735 51.3588 552.66 51.5714 553.702 51.5714C554.744 51.5714 555.67 51.3588 556.479 50.9338C557.288 50.5087 557.967 49.8848 558.515 49.0621C559.064 48.2257 559.482 47.2042 559.77 45.9975C560.058 44.7772 560.202 43.3786 560.202 41.8017Z" fill="white"/>
<path d="M530.802 38.305V43.1179H515.171V38.305H530.802ZM517.001 26.1084V56.0549H510.831V26.1084H517.001ZM535.204 26.1084V56.0549H529.054V26.1084H535.204Z" fill="white"/>
<path d="M499.366 46.121H505.515C505.392 48.1366 504.837 49.926 503.849 51.4892C502.876 53.0523 501.512 54.2727 499.756 55.1502C498.015 56.0278 495.917 56.4665 493.463 56.4665C491.543 56.4665 489.822 56.1375 488.3 55.4793C486.778 54.8074 485.476 53.8476 484.392 52.5998C483.323 51.3521 482.507 49.8438 481.945 48.0749C481.383 46.3061 481.102 44.3248 481.102 42.1309V40.0536C481.102 37.8597 481.39 35.8783 481.965 34.1095C482.555 32.327 483.391 30.8118 484.475 29.564C485.572 28.3163 486.881 27.3564 488.403 26.6846C489.925 26.0127 491.625 25.6768 493.504 25.6768C495.999 25.6768 498.104 26.1292 499.818 27.0342C501.546 27.9392 502.883 29.187 503.829 30.7775C504.789 32.3681 505.365 34.1781 505.557 36.2074H499.386C499.318 35.0008 499.078 33.9792 498.666 33.1428C498.255 32.2927 497.631 31.6551 496.795 31.23C495.972 30.7912 494.875 30.5719 493.504 30.5719C492.475 30.5719 491.577 30.7638 490.809 31.1478C490.042 31.5317 489.397 32.1144 488.876 32.896C488.355 33.6776 487.964 34.6648 487.704 35.8577C487.457 37.037 487.334 38.4219 487.334 40.0124V42.1309C487.334 43.6803 487.45 45.0446 487.683 46.2238C487.916 47.3893 488.273 48.3766 488.753 49.1856C489.246 49.9809 489.877 50.5842 490.645 50.9955C491.427 51.3932 492.366 51.592 493.463 51.592C494.752 51.592 495.814 51.3863 496.651 50.975C497.487 50.5636 498.125 49.9535 498.564 49.1445C499.016 48.3355 499.283 47.3276 499.366 46.121Z" fill="white"/>
<path d="M464.989 31.2297L456.844 56.0549H450.283L461.41 26.1084H465.586L464.989 31.2297ZM471.756 56.0549L463.59 31.2297L462.932 26.1084H467.149L478.337 56.0549H471.756ZM471.386 44.9072V49.7406H455.569V44.9072H471.386Z" fill="white"/>
<path d="M446.159 26.1084V56.0549H439.989V30.9418H427.956V56.0549H421.786V26.1084H446.159Z" fill="white"/>
<path d="M416.062 40.3826V41.8017C416.062 44.0779 415.753 46.121 415.136 47.9309C414.519 49.7409 413.648 51.2834 412.524 52.5586C411.4 53.8201 410.056 54.7868 408.493 55.4587C406.943 56.1305 405.222 56.4665 403.33 56.4665C401.452 56.4665 399.731 56.1305 398.168 55.4587C396.618 54.7868 395.274 53.8201 394.136 52.5586C392.998 51.2834 392.114 49.7409 391.483 47.9309C390.866 46.121 390.558 44.0779 390.558 41.8017V40.3826C390.558 38.0927 390.866 36.0497 391.483 34.2534C392.1 32.4435 392.971 30.9009 394.095 29.6257C395.233 28.3505 396.577 27.377 398.127 26.7051C399.69 26.0332 401.41 25.6973 403.289 25.6973C405.181 25.6973 406.902 26.0332 408.451 26.7051C410.015 27.377 411.358 28.3505 412.483 29.6257C413.621 30.9009 414.498 32.4435 415.115 34.2534C415.746 36.0497 416.062 38.0927 416.062 40.3826ZM409.83 41.8017V40.3414C409.83 38.7509 409.686 37.3523 409.398 36.1456C409.11 34.939 408.685 33.9243 408.122 33.1016C407.56 32.2789 406.875 31.6619 406.066 31.2505C405.257 30.8255 404.331 30.6129 403.289 30.6129C402.247 30.6129 401.321 30.8255 400.512 31.2505C399.717 31.6619 399.038 32.2789 398.476 33.1016C397.928 33.9243 397.509 34.939 397.222 36.1456C396.934 37.3523 396.79 38.7509 396.79 40.3414V41.8017C396.79 43.3786 396.934 44.7772 397.222 45.9975C397.509 47.2042 397.935 48.2257 398.497 49.0621C399.059 49.8848 399.745 50.5087 400.553 50.9338C401.362 51.3588 402.288 51.5714 403.33 51.5714C404.372 51.5714 405.298 51.3588 406.107 50.9338C406.916 50.5087 407.594 49.8848 408.143 49.0621C408.691 48.2257 409.11 47.2042 409.398 45.9975C409.686 44.7772 409.83 43.3786 409.83 41.8017Z" fill="white"/>
<path d="M375.349 41.6988H370.7V38.4286H374.403C375.486 38.4286 376.363 38.264 377.035 37.935C377.707 37.5922 378.201 37.1123 378.516 36.4952C378.832 35.8782 378.989 35.1515 378.989 34.3151C378.989 33.6295 378.811 32.9987 378.454 32.4228C378.112 31.8469 377.577 31.3876 376.85 31.0448C376.123 30.6883 375.198 30.51 374.074 30.51C373.223 30.51 372.449 30.6609 371.749 30.9625C371.05 31.2642 370.495 31.6892 370.083 32.2377C369.672 32.7725 369.466 33.4238 369.466 34.1916H363.317C363.317 32.8753 363.598 31.6961 364.16 30.654C364.736 29.5982 365.517 28.7069 366.505 27.9802C367.506 27.2398 368.657 26.6776 369.96 26.2937C371.263 25.9097 372.634 25.7178 374.074 25.7178C375.76 25.7178 377.282 25.9029 378.64 26.2731C379.997 26.6296 381.163 27.1644 382.136 27.8774C383.11 28.5904 383.857 29.4748 384.378 30.5306C384.899 31.5864 385.16 32.8136 385.16 34.2122C385.16 35.2406 384.926 36.2073 384.46 37.1123C383.994 38.0172 383.329 38.8125 382.465 39.4981C381.601 40.1837 380.566 40.7253 379.359 41.1229C378.153 41.5069 376.816 41.6988 375.349 41.6988ZM370.7 39.9095H375.349C376.98 39.9095 378.427 40.0809 379.689 40.4236C380.964 40.7664 382.04 41.2669 382.918 41.9251C383.809 42.5833 384.481 43.3991 384.933 44.3726C385.399 45.3325 385.633 46.4363 385.633 47.684C385.633 49.0826 385.345 50.3235 384.769 51.4068C384.207 52.49 383.404 53.4087 382.362 54.1628C381.334 54.917 380.114 55.486 378.701 55.87C377.303 56.2539 375.76 56.4459 374.074 56.4459C372.73 56.4459 371.393 56.2813 370.063 55.9522C368.733 55.6094 367.526 55.0884 366.443 54.3891C365.36 53.6898 364.496 52.7917 363.851 51.6947C363.207 50.5978 362.885 49.2815 362.885 47.7457H369.076C369.076 48.4725 369.288 49.1375 369.713 49.7408C370.138 50.3304 370.728 50.8035 371.482 51.16C372.236 51.5028 373.1 51.6742 374.074 51.6742C375.212 51.6742 376.178 51.4959 376.974 51.1394C377.783 50.7829 378.393 50.2961 378.804 49.6791C379.229 49.0484 379.442 48.3559 379.442 47.6018C379.442 46.7928 379.332 46.1072 379.113 45.545C378.893 44.9828 378.571 44.5235 378.146 44.167C377.721 43.7967 377.193 43.5294 376.562 43.3648C375.945 43.2003 375.225 43.118 374.403 43.118H370.7V39.9095Z" fill="white"/>
<path d="M359.298 51.2421V56.0549H343.358V51.2421H359.298ZM345.373 26.1084V56.0549H339.203V26.1084H345.373ZM357.22 38.305V42.9944H343.358V38.305H357.22ZM359.277 26.1084V30.9418H343.358V26.1084H359.277Z" fill="white"/>
<path d="M331.11 26.1084V30.9418H317.638V56.0549H311.488V26.1084H331.11ZM315.52 37.0298H322.513C324.871 37.0298 326.9 37.4206 328.601 38.2022C330.301 38.9838 331.61 40.0807 332.529 41.493C333.448 42.9053 333.907 44.5507 333.907 46.4292C333.907 47.8553 333.647 49.1579 333.125 50.3371C332.604 51.5026 331.843 52.5173 330.842 53.3811C329.855 54.2312 328.662 54.8894 327.264 55.3556C325.865 55.8218 324.281 56.0549 322.513 56.0549H311.488V26.1084H317.679V51.2421H322.513C323.692 51.2421 324.665 51.0227 325.433 50.5839C326.201 50.1451 326.777 49.5624 327.161 48.8357C327.558 48.0952 327.757 47.2794 327.757 46.3881C327.757 45.538 327.558 44.7701 327.161 44.0845C326.777 43.3852 326.201 42.8368 325.433 42.4391C324.665 42.0415 323.692 41.8427 322.513 41.8427H315.52V37.0298Z" fill="white"/>
<path d="M289.224 26.1084V56.0549H283.054V26.1084H289.224ZM306.871 26.1084L295.394 43.6937H287.846L287.064 38.2022H292.103L299.384 26.1084H306.871ZM300.516 56.0549L292.124 42.6654L296.402 38.2639L307.838 56.0549H300.516Z" fill="white"/>
<path d="M277.327 40.3826V41.8017C277.327 44.0779 277.019 46.121 276.402 47.9309C275.785 49.7409 274.914 51.2834 273.789 52.5586C272.665 53.8201 271.321 54.7868 269.758 55.4587C268.209 56.1305 266.488 56.4665 264.596 56.4665C262.717 56.4665 260.996 56.1305 259.433 55.4587C257.884 54.7868 256.54 53.8201 255.402 52.5586C254.264 51.2834 253.38 49.7409 252.749 47.9309C252.132 46.121 251.823 44.0779 251.823 41.8017V40.3826C251.823 38.0927 252.132 36.0497 252.749 34.2534C253.366 32.4435 254.237 30.9009 255.361 29.6257C256.499 28.3505 257.843 27.377 259.392 26.7051C260.955 26.0332 262.676 25.6973 264.555 25.6973C266.447 25.6973 268.168 26.0332 269.717 26.7051C271.28 27.377 272.624 28.3505 273.748 29.6257C274.886 30.9009 275.764 32.4435 276.381 34.2534C277.012 36.0497 277.327 38.0927 277.327 40.3826ZM271.095 41.8017V40.3414C271.095 38.7509 270.951 37.3523 270.663 36.1456C270.375 34.939 269.95 33.9243 269.388 33.1016C268.826 32.2789 268.14 31.6619 267.331 31.2505C266.522 30.8255 265.597 30.6129 264.555 30.6129C263.513 30.6129 262.587 30.8255 261.778 31.2505C260.983 31.6619 260.304 32.2789 259.742 33.1016C259.193 33.9243 258.775 34.939 258.487 36.1456C258.199 37.3523 258.055 38.7509 258.055 40.3414V41.8017C258.055 43.3786 258.199 44.7772 258.487 45.9975C258.775 47.2042 259.2 48.2257 259.762 49.0621C260.325 49.8848 261.01 50.5087 261.819 50.9338C262.628 51.3588 263.554 51.5714 264.596 51.5714C265.638 51.5714 266.563 51.3588 267.372 50.9338C268.181 50.5087 268.86 49.8848 269.409 49.0621C269.957 48.2257 270.375 47.2042 270.663 45.9975C270.951 44.7772 271.095 43.3786 271.095 41.8017Z" fill="white"/>
<path d="M236.288 42.9122H228.596L228.555 38.6752H235.013C236.151 38.6752 237.083 38.5313 237.81 38.2433C238.537 37.9417 239.078 37.5097 239.435 36.9476C239.805 36.3717 239.99 35.6724 239.99 34.8497C239.99 33.9173 239.812 33.1631 239.455 32.5872C239.113 32.0113 238.571 31.5931 237.831 31.3326C237.104 31.0721 236.165 30.9418 235.013 30.9418H230.735V56.0549H224.564V26.1084H235.013C236.754 26.1084 238.311 26.2729 239.682 26.602C241.067 26.9311 242.239 27.4316 243.199 28.1035C244.159 28.7753 244.892 29.6255 245.399 30.6539C245.907 31.6685 246.16 32.8752 246.16 34.2738C246.16 35.5078 245.879 36.6459 245.317 37.688C244.769 38.7301 243.898 39.5802 242.705 40.2384C241.526 40.8965 239.983 41.2599 238.077 41.3285L236.288 42.9122ZM236.021 56.0549H226.909L229.316 51.2421H236.021C237.104 51.2421 237.988 51.0707 238.674 50.7279C239.359 50.3714 239.867 49.8915 240.196 49.2882C240.525 48.6848 240.689 47.9924 240.689 47.2108C240.689 46.3333 240.539 45.5723 240.237 44.9278C239.949 44.2834 239.483 43.7897 238.838 43.4469C238.194 43.0904 237.344 42.9122 236.288 42.9122H230.344L230.385 38.6752H237.789L239.209 40.3412C241.032 40.3138 242.499 40.636 243.61 41.3079C244.734 41.9661 245.55 42.823 246.058 43.8789C246.579 44.9347 246.839 46.0659 246.839 47.2725C246.839 49.1922 246.421 50.8102 245.585 52.1265C244.748 53.4291 243.521 54.4095 241.903 55.0677C240.299 55.7258 238.338 56.0549 236.021 56.0549Z" fill="white"/>
<path d="M218.857 40.3826V41.8017C218.857 44.0779 218.549 46.121 217.932 47.9309C217.315 49.7409 216.444 51.2834 215.32 52.5586C214.195 53.8201 212.852 54.7868 211.289 55.4587C209.739 56.1305 208.018 56.4665 206.126 56.4665C204.248 56.4665 202.527 56.1305 200.964 55.4587C199.414 54.7868 198.07 53.8201 196.932 52.5586C195.794 51.2834 194.91 49.7409 194.279 47.9309C193.662 46.121 193.354 44.0779 193.354 41.8017V40.3826C193.354 38.0927 193.662 36.0497 194.279 34.2534C194.896 32.4435 195.767 30.9009 196.891 29.6257C198.029 28.3505 199.373 27.377 200.922 26.7051C202.486 26.0332 204.206 25.6973 206.085 25.6973C207.977 25.6973 209.698 26.0332 211.247 26.7051C212.811 27.377 214.154 28.3505 215.279 29.6257C216.417 30.9009 217.294 32.4435 217.911 34.2534C218.542 36.0497 218.857 38.0927 218.857 40.3826ZM212.625 41.8017V40.3414C212.625 38.7509 212.481 37.3523 212.193 36.1456C211.906 34.939 211.48 33.9243 210.918 33.1016C210.356 32.2789 209.671 31.6619 208.862 31.2505C208.053 30.8255 207.127 30.6129 206.085 30.6129C205.043 30.6129 204.117 30.8255 203.308 31.2505C202.513 31.6619 201.834 32.2789 201.272 33.1016C200.724 33.9243 200.305 34.939 200.017 36.1456C199.729 37.3523 199.586 38.7509 199.586 40.3414V41.8017C199.586 43.3786 199.729 44.7772 200.017 45.9975C200.305 47.2042 200.73 48.2257 201.293 49.0621C201.855 49.8848 202.54 50.5087 203.349 50.9338C204.158 51.3588 205.084 51.5714 206.126 51.5714C207.168 51.5714 208.094 51.3588 208.903 50.9338C209.712 50.5087 210.39 49.8848 210.939 49.0621C211.487 48.2257 211.906 47.2042 212.193 45.9975C212.481 44.7772 212.625 43.3786 212.625 41.8017Z" fill="white"/>
<path d="M177.505 45.3803H169.874V40.5675H177.505C178.684 40.5675 179.644 40.3755 180.384 39.9916C181.125 39.5939 181.666 39.0455 182.009 38.3462C182.352 37.6469 182.523 36.8584 182.523 35.9809C182.523 35.0896 182.352 34.26 182.009 33.4922C181.666 32.7243 181.125 32.1073 180.384 31.6411C179.644 31.1749 178.684 30.9418 177.505 30.9418H172.013V56.0549H165.843V26.1084H177.505C179.849 26.1084 181.858 26.5335 183.531 27.3836C185.218 28.22 186.506 29.3787 187.398 30.8595C188.289 32.3404 188.735 34.0338 188.735 35.9397C188.735 37.8731 188.289 39.5459 187.398 40.9582C186.506 42.3706 185.218 43.4606 183.531 44.2285C181.858 44.9964 179.849 45.3803 177.505 45.3803Z" fill="white"/>
<path d="M151.848 26.1084V56.0549H145.698V26.1084H151.848ZM161.062 26.1084V30.9418H136.628V26.1084H161.062Z" fill="white"/>
<path d="M127.612 46.121H133.761C133.638 48.1366 133.083 49.926 132.095 51.4892C131.122 53.0523 129.758 54.2727 128.003 55.1502C126.261 56.0278 124.163 56.4665 121.709 56.4665C119.789 56.4665 118.068 56.1375 116.546 55.4793C115.024 54.8074 113.722 53.8476 112.638 52.5998C111.569 51.3521 110.753 49.8438 110.191 48.0749C109.629 46.3061 109.348 44.3248 109.348 42.1309V40.0536C109.348 37.8597 109.636 35.8783 110.211 34.1095C110.801 32.327 111.638 30.8118 112.721 29.564C113.818 28.3163 115.127 27.3564 116.649 26.6846C118.171 26.0127 119.871 25.6768 121.75 25.6768C124.245 25.6768 126.35 26.1292 128.064 27.0342C129.792 27.9392 131.129 29.187 132.075 30.7775C133.035 32.3681 133.611 34.1781 133.803 36.2074H127.632C127.564 35.0008 127.324 33.9792 126.912 33.1428C126.501 32.2927 125.877 31.6551 125.041 31.23C124.218 30.7912 123.121 30.5719 121.75 30.5719C120.722 30.5719 119.823 30.7638 119.056 31.1478C118.288 31.5317 117.643 32.1144 117.122 32.896C116.601 33.6776 116.21 34.6648 115.95 35.8577C115.703 37.037 115.58 38.4219 115.58 40.0124V42.1309C115.58 43.6803 115.696 45.0446 115.929 46.2238C116.162 47.3893 116.519 48.3766 116.999 49.1856C117.492 49.9809 118.123 50.5842 118.891 50.9955C119.673 51.3932 120.612 51.592 121.709 51.592C122.998 51.592 124.06 51.3863 124.897 50.975C125.733 50.5636 126.371 49.9535 126.81 49.1445C127.262 48.3355 127.529 47.3276 127.612 46.121Z" fill="white"/>
<path d="M104.546 40.3845V41.8037C104.546 44.0799 104.237 46.1229 103.62 47.9329C103.003 49.7428 102.133 51.2854 101.008 52.5606C99.8839 53.8221 98.5401 54.7887 96.977 55.4606C95.4276 56.1325 93.7067 56.4684 91.8145 56.4684C89.936 56.4684 88.2152 56.1325 86.652 55.4606C85.1026 54.7887 83.7588 53.8221 82.6208 52.5606C81.4827 51.2854 80.5983 49.7428 79.9675 47.9329C79.3505 46.1229 79.042 44.0799 79.042 41.8037V40.3845C79.042 38.0947 79.3505 36.0516 79.9675 34.2554C80.5846 32.4454 81.4553 30.9028 82.5796 29.6276C83.7177 28.3524 85.0615 27.3789 86.6109 26.707C88.174 26.0352 89.8949 25.6992 91.7734 25.6992C93.6656 25.6992 95.3864 26.0352 96.9359 26.707C98.499 27.3789 99.8427 28.3524 100.967 29.6276C102.105 30.9028 102.983 32.4454 103.6 34.2554C104.231 36.0516 104.546 38.0947 104.546 40.3845ZM98.3139 41.8037V40.3434C98.3139 38.7528 98.1699 37.3542 97.882 36.1476C97.594 34.941 97.169 33.9263 96.6068 33.1036C96.0446 32.2809 95.359 31.6638 94.55 31.2525C93.741 30.8274 92.8155 30.6149 91.7734 30.6149C90.7313 30.6149 89.8057 30.8274 88.9967 31.2525C88.2015 31.6638 87.5227 32.2809 86.9605 33.1036C86.4121 33.9263 85.9939 34.941 85.7059 36.1476C85.418 37.3542 85.274 38.7528 85.274 40.3434V41.8037C85.274 43.3806 85.418 44.7792 85.7059 45.9995C85.9939 47.2061 86.4189 48.2277 86.9811 49.0641C87.5433 49.8868 88.2289 50.5107 89.0379 50.9357C89.8469 51.3608 90.7724 51.5733 91.8145 51.5733C92.8566 51.5733 93.7821 51.3608 94.5911 50.9357C95.4001 50.5107 96.0789 49.8868 96.6273 49.0641C97.1758 48.2277 97.594 47.2061 97.882 45.9995C98.1699 44.7792 98.3139 43.3806 98.3139 41.8037Z" fill="white"/>
<path d="M9.46299 79.104L24.0233 0H32.9334L18.3731 79.104H9.46299ZM30.6516 79.104L45.2119 0H54.122L39.5616 79.104H30.6516ZM61.5108 31.0222H5.00796V22.6011H61.5108V31.0222ZM57.4361 56.8288H0.878906V48.4077H57.4361V56.8288Z" fill="white"/>
</svg>
