<svg width="317" height="401" viewBox="0 0 317 401" fill="none" xmlns="http://www.w3.org/2000/svg">
<g clip-path="url(#clip0_500_1790)">
<path d="M158.5 13.8681C238.353 13.8681 303.095 73.5999 303.095 147.299C303.095 206.451 230.152 305.565 187.884 371.82C181.358 382.038 170.106 387.146 158.841 387.146C147.476 387.146 136.111 381.953 129.626 371.58C87.4297 304.136 13.9048 202.46 13.9048 147.299C13.9048 73.5999 78.647 13.8681 158.5 13.8681ZM158.5 0C71.0987 0 0 66.0715 0 147.299C0 196.969 49.7592 273.612 93.6443 341.24C102.342 354.627 110.543 367.278 117.822 378.91C126.477 392.75 141.8 401 158.826 401C175.668 401 190.921 392.877 199.604 379.25C206.386 368.622 213.963 357.146 221.979 344.99C266.517 277.503 317 201.002 317 147.271C317 66.0715 245.901 0 158.5 0Z" fill="white"/>
<path d="M111.834 185.946C89.3595 185.762 68.5875 175.46 54.8246 157.686L54.7537 157.587L54.6828 157.488C53.3065 155.464 51.6038 152.946 50.6107 149.988C46.7939 138.596 50.6107 126.766 60.117 120.582C63.7067 118.233 68.1193 117.002 73.2272 116.889C73.1988 116.591 73.1704 116.294 73.1704 115.997L73.1562 115.488C73.0995 112.799 73.0427 110.025 73.5961 107.181C75.8662 95.4921 83.4145 85.3174 93.8147 79.9683C100.086 76.7418 106.897 75.0296 113.508 75.0296C118.403 75.0296 122.972 75.9635 127.115 77.8032C127.598 77.0532 128.094 76.3032 128.591 75.5531C128.832 75.1852 129.073 74.8314 129.314 74.4635C130.591 72.5248 131.911 70.5153 133.571 68.6616C137.274 64.5294 141.928 61.0199 147.036 58.5152C152.853 55.6425 158.756 53.9727 164.601 53.534C166.914 53.3642 169.213 53.2793 171.44 53.2793C175.697 53.2793 179.641 53.5906 183.146 54.2274C185.586 54.6661 187.828 55.4727 189.999 56.251C190.51 56.435 191.02 56.619 191.531 56.7888C194.397 57.7793 197.121 59.0246 199.647 60.4822C204.882 63.5106 209.38 66.9634 213.396 71.0531C217.922 75.6522 220.93 81.1994 223.03 85.5297C224.349 88.2184 225.03 90.8505 225.697 93.3977L225.995 94.5581C226.648 97.0487 227.329 99.6242 227.57 102.483C227.627 103.077 227.655 103.671 227.698 104.266C229.613 104.039 231.599 103.813 233.699 103.813C234.082 103.813 234.451 103.813 234.834 103.841C241.361 104.11 247.278 105.907 251.946 109.035C256.458 112.063 260.09 116.761 262.176 122.266C263.311 125.266 263.85 128.323 263.793 131.379C263.751 133.615 263.268 135.568 262.687 137.719L262.644 137.875L262.587 138.03C257.664 151.615 248.867 163.347 237.147 171.936C225.186 180.696 210.998 185.536 196.142 185.946L111.905 185.96L111.834 185.946Z" fill="url(#paint0_radial_500_1790)"/>
<path d="M171.397 57.0713C175.129 57.0713 178.903 57.326 182.422 57.9628C185.075 58.444 187.672 59.4911 190.226 60.3827C192.808 61.2883 195.319 62.4063 197.689 63.7789C202.456 66.5384 206.755 69.779 210.614 73.713C214.445 77.6046 217.17 82.3169 219.553 87.1849C220.802 89.7321 221.412 92.2793 222.121 94.9963C222.802 97.6142 223.498 100.091 223.725 102.794C223.852 104.364 223.923 105.935 223.98 107.506C224.008 108.185 224.633 108.341 225.257 108.341C225.669 108.341 226.094 108.27 226.335 108.242C228.79 107.959 231.188 107.605 233.657 107.605C233.983 107.605 234.309 107.605 234.636 107.619C239.928 107.845 245.348 109.204 249.775 112.176C253.847 114.907 256.841 119.053 258.572 123.596C259.508 126.044 259.991 128.662 259.934 131.28C259.891 133.148 259.437 134.931 258.955 136.714C249.576 162.639 225.03 181.318 196 182.111C184.266 182.111 171.88 182.111 159.578 182.125C142.878 182.125 126.349 182.139 111.862 182.139C89.8701 181.955 70.3467 171.511 57.8466 155.365C56.442 153.285 55.0373 151.19 54.2286 148.785C51.1355 139.53 53.7462 129.284 62.2025 123.78C65.6929 121.501 69.8076 120.709 73.9222 120.709C74.4898 120.709 75.0573 120.723 75.6249 120.751C75.6674 120.751 75.6958 120.751 75.7384 120.751C77.9376 120.751 77.0153 117.397 76.987 115.926C76.9302 113.265 76.8451 110.52 77.3417 107.902C79.3564 97.501 86.0818 88.2321 95.5597 83.3499C101.022 80.5338 107.294 78.8357 113.494 78.8357C118.19 78.8357 122.844 79.8121 127.072 82.0197C127.555 82.2744 127.895 82.3876 128.165 82.3876C128.676 82.3876 128.96 81.9773 129.456 81.1848C130.208 79.9961 130.974 78.8216 131.755 77.647C133.216 75.4536 134.621 73.1611 136.394 71.1941C139.828 67.3733 144.07 64.2035 148.696 61.911C153.747 59.4204 159.224 57.7364 164.842 57.326C166.971 57.1704 169.184 57.0713 171.397 57.0713ZM171.397 49.458C169.085 49.458 166.687 49.5429 164.289 49.7269C157.961 50.1939 151.576 52.0052 145.319 55.0901C139.785 57.8213 134.734 61.628 130.705 66.1139C128.846 68.1799 127.385 70.4016 126.093 72.3687C125.923 72.6234 125.767 72.8781 125.597 73.1328C121.809 71.8592 117.765 71.2224 113.494 71.2224C106.286 71.2224 98.8657 73.0762 92.0552 76.5857C80.6192 82.4725 72.3189 93.6378 69.836 106.473C69.3677 108.879 69.2826 111.213 69.2968 113.393C65.0544 113.945 61.2803 115.289 58.0311 117.412C47.0492 124.572 42.6224 138.157 46.9924 151.219C48.1559 154.672 50.0146 157.431 51.5186 159.653L51.6604 159.851L51.8023 160.035C66.2746 178.743 88.1533 189.582 111.806 189.78H111.834H111.862L152.427 189.766H159.564L195.986 189.752H196.085H196.185C211.821 189.328 226.747 184.233 239.346 175.007C251.69 165.964 260.941 153.638 266.12 139.332L266.234 139.035L266.319 138.723C266.943 136.417 267.496 134.138 267.553 131.478C267.624 127.94 267 124.388 265.694 120.935C263.325 114.695 259.182 109.346 254.017 105.878C248.767 102.355 242.17 100.331 234.934 100.034C234.508 100.02 234.068 100.006 233.642 100.006C232.763 100.006 231.911 100.034 231.074 100.091C230.72 97.7558 230.166 95.6472 229.627 93.5953L229.499 93.0859L229.329 92.4349C228.62 89.7038 227.882 86.8877 226.406 83.8594C224.165 79.2744 220.972 73.3875 216.063 68.3922C211.806 64.0478 207.039 60.3968 201.505 57.1987C198.767 55.6137 195.816 54.2694 192.737 53.208C192.24 53.0382 191.744 52.8543 191.247 52.6845C189.034 51.892 186.522 50.9863 183.77 50.491C180.052 49.7976 175.881 49.458 171.397 49.458Z" fill="white"/>
<path d="M160.175 264.796H187.587C193.66 264.796 197.462 271.362 194.426 276.612L180.72 300.287L163.864 329.396C162.218 332.226 158.117 332.226 156.471 329.396L139.616 300.287L125.909 276.612C122.873 271.362 126.676 264.796 132.748 264.796H160.175Z" fill="white"/>
<path d="M255.464 180.201L161.635 102.327C160.784 101.619 159.734 101.266 158.684 101.266C157.634 101.266 156.584 101.619 155.733 102.327L61.9042 180.201C60.0029 181.785 61.1238 184.87 63.6068 184.87H68.8849C71.751 184.87 74.0637 187.177 74.0637 190.036V226.093C74.0637 237.258 83.1444 246.314 94.3391 246.314C133.897 246.3 181.599 246.3 223.043 246.286C234.238 246.286 243.319 237.229 243.319 226.064V190.036C243.319 187.177 245.631 184.87 248.497 184.87H253.776C256.244 184.856 257.365 181.771 255.464 180.201ZM158.684 133.898C163.054 133.898 166.601 137.422 166.601 141.766C166.601 146.11 163.054 149.634 158.684 149.634C154.314 149.634 150.767 146.11 150.767 141.766C150.767 137.422 154.314 133.898 158.684 133.898Z" fill="white"/>
<path d="M156.967 196.417C156.967 203.677 154.683 209.663 150.1 214.375C145.517 219.087 139.572 221.436 132.223 221.436C124.915 221.436 118.985 219.073 114.43 214.347C109.876 209.62 107.605 203.634 107.605 196.403V185.79C107.605 178.573 109.876 172.601 114.402 167.874C118.942 163.134 124.845 160.771 132.123 160.771C139.459 160.771 145.432 163.134 150.029 167.874C154.626 172.615 156.939 178.587 156.939 185.79V196.417H156.967ZM145.148 185.719C145.148 181.134 143.999 177.356 141.701 174.412C139.402 171.469 136.224 169.997 132.152 169.997C128.15 169.997 125.029 171.469 122.787 174.412C120.56 177.356 119.439 181.12 119.439 185.719V196.417C119.439 201.087 120.56 204.894 122.816 207.837C125.072 210.781 128.207 212.252 132.237 212.252C136.295 212.252 139.473 210.781 141.743 207.837C144.013 204.894 145.148 201.087 145.148 196.417V185.719Z" fill="#F69000"/>
<path d="M204.74 170.733H178.052V182.351H188.21C195.007 182.351 200.413 184.12 204.414 187.658C208.415 191.195 210.43 195.766 210.43 201.384C210.43 207.059 208.415 211.672 204.4 215.238C200.384 218.804 194.978 220.587 188.21 220.587H166.204V161.605H204.74V170.733ZM178.052 191.464V211.516H188.21C191.545 211.516 194.099 210.526 195.901 208.559C197.703 206.592 198.597 204.172 198.597 201.313C198.597 198.554 197.703 196.233 195.901 194.323C194.099 192.412 191.531 191.464 188.21 191.464H178.052Z" fill="#F69000"/>
</g>
<defs>
<radialGradient id="paint0_radial_500_1790" cx="0" cy="0" r="1" gradientUnits="userSpaceOnUse" gradientTransform="translate(156.472 119.62) rotate(90) scale(66.3404 107.325)">
<stop stop-color="#259B37"/>
<stop offset="1" stop-color="#9BC736"/>
</radialGradient>
<clipPath id="clip0_500_1790">
<rect width="317" height="401" fill="white"/>
</clipPath>
</defs>
</svg>
