<svg width="141" height="141" viewBox="0 0 141 141" fill="none" xmlns="http://www.w3.org/2000/svg">
<g clip-path="url(#clip0_518_291)">
<mask id="mask0_518_291" style="mask-type:luminance" maskUnits="userSpaceOnUse" x="0" y="0" width="141" height="141">
<path d="M141 0H0V141H141V0Z" fill="white"/>
</mask>
<g mask="url(#mask0_518_291)">
<path d="M70.5001 137.716C33.437 137.716 3.28809 107.562 3.28809 70.5041C3.28809 33.446 33.442 3.28711 70.5001 3.28711C107.558 3.28711 137.712 33.441 137.712 70.4991C137.712 107.557 107.563 137.716 70.5001 137.716Z" fill="#F79221"/>
</g>
<mask id="mask1_518_291" style="mask-type:luminance" maskUnits="userSpaceOnUse" x="0" y="0" width="141" height="141">
<path d="M141 0H0V141H141V0Z" fill="white"/>
</mask>
<g mask="url(#mask1_518_291)">
<path d="M70.4999 5.29849C106.513 5.29849 135.707 34.4923 135.707 70.5059C135.707 106.519 106.513 135.713 70.4999 135.713C34.4864 135.713 5.29751 106.514 5.29751 70.5009C5.29751 34.4874 34.4914 5.29849 70.4999 5.29849ZM70.4999 1.2793C52.0107 1.2793 34.6257 8.48201 21.5534 21.5543C8.48103 34.6267 1.27832 52.0116 1.27832 70.5009C1.27832 88.9902 8.48103 106.375 21.5534 119.448C34.6257 132.52 52.0107 139.723 70.4999 139.723C88.9892 139.723 106.374 132.52 119.447 119.448C132.519 106.375 139.722 88.9902 139.722 70.5009C139.722 52.0116 132.519 34.6267 119.447 21.5543C106.374 8.48201 88.9892 1.2793 70.4999 1.2793Z" fill="white"/>
</g>
<mask id="mask2_518_291" style="mask-type:luminance" maskUnits="userSpaceOnUse" x="0" y="0" width="141" height="141">
<path d="M141 0H0V141H141V0Z" fill="white"/>
</mask>
<g mask="url(#mask2_518_291)">
<path d="M78.5728 58.8301H63.8789V70.8081H78.5728V58.8301Z" fill="white"/>
</g>
<mask id="mask3_518_291" style="mask-type:luminance" maskUnits="userSpaceOnUse" x="21" y="24" width="99" height="62">
<path d="M74.0713 24.6871C71.4201 24.8861 68.729 25.6471 66.0827 26.9553C63.7647 28.0994 61.6506 29.7011 59.9594 31.5864C59.2033 32.432 58.6014 33.3473 58.0244 34.2327C57.915 34.4018 57.8055 34.5659 57.6961 34.7301C57.4673 35.0733 57.2435 35.4116 57.0246 35.7548C55.1393 34.9141 53.0651 34.4864 50.8366 34.4864C47.8322 34.4864 44.7382 35.2673 41.883 36.7397C37.1574 39.182 33.7202 43.823 32.6906 49.1504C32.4419 50.4487 32.4667 51.7171 32.4916 52.9408L32.4966 53.1746C32.4966 53.3089 32.5115 53.4482 32.5264 53.5825C30.2084 53.6322 28.2038 54.1943 26.5673 55.2638C22.2446 58.0892 20.5086 63.4763 22.2446 68.6744C22.6973 70.0224 23.4733 71.1714 24.0951 72.0966L24.1249 72.1414L24.1597 72.1862C30.4173 80.2892 39.8634 84.9849 50.0855 85.0695H50.1004L88.4071 85.0595C95.1671 84.8755 101.614 82.6669 107.056 78.6726C112.388 74.7579 116.392 69.4105 118.626 63.2176L118.651 63.148L118.67 63.0783C118.934 62.0984 119.153 61.208 119.173 60.1883C119.203 58.7955 118.954 57.3977 118.437 56.0298C117.487 53.5178 115.835 51.3739 113.781 49.9961C111.657 48.5684 108.966 47.7477 106.001 47.6233C105.827 47.6184 105.653 47.6134 105.484 47.6134C104.534 47.6134 103.633 47.7129 102.758 47.8223C102.743 47.5537 102.723 47.2801 102.698 47.0115C102.584 45.7083 102.275 44.5343 101.982 43.3952L101.843 42.868C101.539 41.704 101.226 40.5052 100.634 39.2815C99.6738 37.3117 98.3059 34.7848 96.2515 32.6857C94.4259 30.8203 92.3815 29.2485 89.9989 27.8656C88.8498 27.1991 87.6063 26.632 86.308 26.1794C86.0792 26.0998 85.8454 26.0152 85.6116 25.9307C84.6217 25.5725 83.602 25.2044 82.4927 25.0054C80.896 24.7219 79.1102 24.5727 77.1703 24.5727C76.1705 24.5677 75.1209 24.6075 74.0713 24.6871Z" fill="white"/>
</mask>
<g mask="url(#mask3_518_291)">
<path d="M119.208 24.5684H20.5088V85.0651H119.208V24.5684Z" fill="url(#paint0_radial_518_291)"/>
</g>
<mask id="mask4_518_291" style="mask-type:luminance" maskUnits="userSpaceOnUse" x="0" y="0" width="141" height="141">
<path d="M141 0H0V141H141V0Z" fill="white"/>
</mask>
<g mask="url(#mask4_518_291)">
<path d="M77.1755 26.309C78.8717 26.309 80.5928 26.4284 82.1895 26.7119C83.3982 26.9308 84.5771 27.4083 85.7361 27.8162C86.9101 28.2241 88.0492 28.7414 89.1286 29.3632C91.2973 30.6217 93.2522 32.0991 95.0081 33.8948C96.7491 35.6706 97.9877 37.8194 99.0721 40.0379C99.6392 41.2019 99.9177 42.3609 100.241 43.5995C100.554 44.7933 100.863 45.9225 100.972 47.1561C101.032 47.8724 101.062 48.5887 101.092 49.305C101.107 49.6134 101.39 49.688 101.674 49.688C101.863 49.688 102.052 49.6581 102.161 49.6432C103.28 49.5139 104.37 49.3497 105.489 49.3497C105.638 49.3497 105.787 49.3547 105.937 49.3597C108.344 49.4592 110.806 50.081 112.821 51.434C114.671 52.6775 116.039 54.5727 116.82 56.642C117.243 57.7612 117.467 58.95 117.442 60.1488C117.422 60.9994 117.213 61.8102 116.999 62.621C112.736 74.4398 101.569 82.9607 88.3675 83.3189C83.0301 83.3189 77.3993 83.3238 71.8033 83.3238C64.2076 83.3238 56.6915 83.3288 50.1056 83.3288C40.1074 83.2443 31.2234 78.4789 25.5428 71.122C24.9011 70.1719 24.2644 69.2169 23.9013 68.1225C22.4936 63.9044 23.6824 59.2286 27.5225 56.7166C29.1093 55.677 30.9796 55.3139 32.85 55.3139C33.1086 55.3139 33.3673 55.3188 33.621 55.3338C33.6409 55.3338 33.6558 55.3338 33.6707 55.3338C34.6705 55.3338 34.2477 53.8067 34.2378 53.1351C34.2129 51.9264 34.1681 50.6729 34.4019 49.4791C35.3172 44.7336 38.3763 40.5105 42.689 38.282C45.1712 36.9987 48.0264 36.2227 50.8468 36.2227C52.9807 36.2227 55.0998 36.6704 57.0248 37.6752C57.2437 37.7896 57.3979 37.8443 57.5222 37.8443C57.751 37.8443 57.8804 37.6553 58.1092 37.2971C58.4524 36.7549 58.8006 36.2177 59.1538 35.6855C59.8203 34.6857 60.462 33.6411 61.2628 32.7407C62.8248 30.9948 64.7548 29.5522 66.8589 28.5076C69.157 27.3735 71.6441 26.6025 74.2058 26.4135C75.1609 26.3488 76.1657 26.309 77.1755 26.309ZM77.1755 22.832C76.1209 22.832 75.0316 22.8718 73.9372 22.9564C71.0621 23.1703 68.1572 23.991 65.3069 25.3987C62.7949 26.6423 60.4968 28.3783 58.6613 30.4277C57.8157 31.3678 57.1491 32.3876 56.5672 33.2829C56.4925 33.3973 56.4179 33.5117 56.3383 33.6261C54.6173 33.0442 52.7718 32.7507 50.8319 32.7507C47.5538 32.7507 44.1813 33.5963 41.0823 35.198C35.8842 37.8841 32.1088 42.9728 30.9747 48.8225C30.7608 49.9218 30.7259 50.9863 30.7309 51.9761C28.8009 52.2298 27.0848 52.8417 25.6025 53.8116C20.6133 57.0747 18.5938 63.2677 20.5835 69.2268C21.1107 70.7987 21.9613 72.0572 22.6428 73.0719L22.7025 73.1615L22.7672 73.246C29.3531 81.7719 39.2966 86.7163 50.0559 86.8058H50.0708H50.0857L68.5352 86.8008H71.7834L88.3476 86.7959H88.3924H88.4372C95.5503 86.6019 102.34 84.2789 108.066 80.0707C113.676 75.952 117.89 70.3261 120.242 63.7999L120.292 63.6656L120.332 63.5263C120.616 62.4768 120.869 61.4322 120.894 60.2234C120.929 58.6068 120.645 56.9902 120.048 55.4133C118.974 52.5631 117.084 50.1257 114.736 48.5489C112.348 46.9422 109.349 46.022 106.061 45.8827C105.867 45.8727 105.668 45.8727 105.469 45.8727C105.066 45.8727 104.683 45.8877 104.305 45.9125C104.146 44.848 103.892 43.888 103.648 42.9479L103.589 42.7191L103.509 42.4206C103.186 41.1771 102.853 39.8937 102.181 38.5109C101.161 36.4217 99.7088 33.7356 97.4754 31.4574C95.5404 29.4776 93.3716 27.8113 90.8546 26.3538C89.6111 25.6325 88.268 25.0207 86.8653 24.5332C86.6415 24.4536 86.4126 24.374 86.1888 24.2895C85.179 23.9264 84.0399 23.5135 82.7864 23.2897C81.1101 22.9862 79.2149 22.832 77.1755 22.832Z" fill="white"/>
</g>
<mask id="mask5_518_291" style="mask-type:luminance" maskUnits="userSpaceOnUse" x="0" y="0" width="141" height="141">
<path d="M141 0H0V141H141V0Z" fill="white"/>
</mask>
<g mask="url(#mask5_518_291)">
<path d="M115.408 82.4477L72.7336 46.9415C72.3456 46.6182 71.8681 46.459 71.3956 46.459C70.918 46.459 70.4455 46.6231 70.0525 46.9415L27.3784 82.4477C26.5129 83.1689 27.0253 84.5766 28.1544 84.5766H30.552C31.8503 84.5766 32.9048 85.6312 32.9048 86.9295V103.369C32.9048 108.463 37.0335 112.592 42.1271 112.592C60.1189 112.587 81.8067 112.582 100.659 112.577C105.753 112.577 109.876 108.448 109.876 103.354V86.9295C109.876 85.6312 110.931 84.5766 112.229 84.5766H114.627C115.761 84.5766 116.273 83.1689 115.408 82.4477ZM71.3956 61.337C73.3853 61.337 74.9969 62.9436 74.9969 64.9234C74.9969 66.9031 73.3853 68.5098 71.3956 68.5098C69.4059 68.5098 67.7942 66.9031 67.7942 64.9234C67.7942 62.9387 69.4059 61.337 71.3956 61.337Z" fill="white"/>
</g>
<mask id="mask6_518_291" style="mask-type:luminance" maskUnits="userSpaceOnUse" x="0" y="0" width="141" height="141">
<path d="M141 0H0V141H141V0Z" fill="white"/>
</mask>
<g mask="url(#mask6_518_291)">
<path d="M70.6644 89.8144C70.6644 93.1273 69.6248 95.8581 67.5456 98.007C65.4613 100.156 62.7554 101.23 59.4176 101.23C56.0948 101.23 53.3938 100.151 51.3295 97.9971C49.2602 95.8432 48.2256 93.1173 48.2256 89.8144V84.9745C48.2256 81.6865 49.2553 78.9606 51.3196 76.8018C53.3839 74.643 56.07 73.5586 59.3828 73.5586C62.7205 73.5586 65.4365 74.638 67.5257 76.8018C69.6198 78.9656 70.6644 81.6865 70.6644 84.9745V89.8144ZM65.2922 84.9397C65.2922 82.8455 64.7699 81.1294 63.7204 79.7863C62.6758 78.4433 61.2283 77.7718 59.3779 77.7718C57.5573 77.7718 56.1396 78.4433 55.1199 79.7863C54.1051 81.1294 53.5978 82.8455 53.5978 84.9397V89.8144C53.5978 91.9434 54.1101 93.6794 55.1298 95.0225C56.1545 96.3655 57.5821 97.037 59.4127 97.037C61.2581 97.037 62.7006 96.3655 63.7353 95.0225C64.7699 93.6794 65.2873 91.9434 65.2873 89.8144V84.9397H65.2922Z" fill="#F79221"/>
</g>
<mask id="mask7_518_291" style="mask-type:luminance" maskUnits="userSpaceOnUse" x="0" y="0" width="141" height="141">
<path d="M141 0H0V141H141V0Z" fill="white"/>
</mask>
<g mask="url(#mask7_518_291)">
<path d="M92.3523 78.1047H80.2201V83.4072H84.8362C87.9252 83.4072 90.3825 84.213 92.208 85.8247C94.0286 87.4364 94.9439 89.5255 94.9439 92.0873C94.9439 94.6739 94.0286 96.778 92.2031 98.4046C90.3775 100.031 87.9202 100.842 84.8412 100.842H74.833V73.9512H92.3622V78.1047H92.3523ZM80.2151 87.5607V96.7034H84.8312C86.3484 96.7034 87.5124 96.2557 88.3331 95.3554C89.1489 94.455 89.5618 93.3557 89.5618 92.0475C89.5618 90.789 89.1539 89.7295 88.3331 88.859C87.5124 87.9885 86.3484 87.5557 84.8312 87.5557H80.2151V87.5607Z" fill="#F79221"/>
</g>
</g>
<defs>
<radialGradient id="paint0_radial_518_291" cx="0" cy="0" r="1" gradientUnits="userSpaceOnUse" gradientTransform="translate(70.3848 54.817) scale(40.6152 40.6152)">
<stop stop-color="#66BC45"/>
<stop offset="1" stop-color="#9DCC42"/>
</radialGradient>
<clipPath id="clip0_518_291">
<rect width="141" height="141" fill="white"/>
</clipPath>
</defs>
</svg>
