<svg width="118" height="50" viewBox="0 0 118 50" fill="none" xmlns="http://www.w3.org/2000/svg">
<g clip-path="url(#clip0_500_1951)">
<path d="M51.3304 3.86035V34.055H44.1174V9.69839H36.0649V34.055H28.9141V3.86035H51.3304Z" fill="black"/>
<path d="M117.647 34.055H110.496V9.69839H106.485C106.143 15.8189 105.552 20.684 104.744 24.2935C103.936 27.903 102.879 30.5082 101.542 32.1403C100.205 33.7725 98.4327 34.5885 96.2253 34.5885C94.8884 34.5885 93.8002 34.4002 92.9297 33.9922V27.9972C93.4582 28.1855 94.0179 28.2797 94.5775 28.2797C96.0698 28.2797 97.2513 26.3337 98.0907 22.473C98.9302 18.6124 99.5831 12.3977 100.018 3.86035H117.616V34.055H117.647Z" fill="black"/>
<path fill-rule="evenodd" clip-rule="evenodd" d="M54.1914 0H91.5935V38.5122H54.1914V0Z" fill="#FF6600"/>
<path d="M84.1 6.6543V32.1408H76.918V11.5821H68.8344V32.1408H61.6836V6.6543H84.1Z" fill="white"/>
<path d="M16.6335 38.512H23.2558L26.396 28.3738H22.3542V3.86035H15.1722V28.2169H7.15085V3.86035H0V34.055H19.2762L16.6335 38.512Z" fill="black"/>
<path d="M0.870538 42.1533V47.0184H2.48725V42.1533H3.35779V47.0811H3.82415L3.76197 49.2782H3.10907L3.04688 47.7716H0V42.1533H0.870538Z" fill="black"/>
<path d="M5.28574 45.0403C5.28574 46.7666 5.96973 47.1432 6.62264 47.1432C6.99572 47.1432 7.33772 47.049 7.55536 46.9235L7.67972 47.5826C7.36881 47.7709 6.90245 47.8651 6.46718 47.8651C5.13028 47.8651 4.44629 46.7666 4.44629 45.0403C4.44629 43.2198 5.19246 42.0898 6.31173 42.0898C7.46208 42.0898 7.89735 43.2826 7.89735 44.5694C7.89735 44.7892 7.89735 44.9147 7.89735 45.0716H5.28574V45.0403ZM7.02681 44.3811C7.0579 43.2512 6.62264 42.749 6.18737 42.749C5.59664 42.749 5.31683 43.5964 5.28574 44.3811H7.02681Z" fill="black"/>
<path d="M9.73171 42.1533V44.5388H11.3795V42.1533H12.2501V47.7717H11.3795V45.2921H9.73171V47.7717H8.83008V42.1533H9.73171Z" fill="black"/>
<path d="M16.3536 42.1533V42.9066H15.1099V47.7717H14.2083V42.9066H12.9336V42.1533H16.3536Z" fill="black"/>
<path d="M17.0067 43.9104C17.0067 43.063 16.9756 42.5608 16.9756 42.1528H17.7839L17.815 42.8747H17.8461C18.157 42.2783 18.5923 42.0586 19.0276 42.0586C19.9914 42.0586 20.6443 43.0944 20.6443 44.9462C20.6443 47.0178 19.8048 47.8652 18.9032 47.8652C18.3747 47.8652 18.0948 47.52 17.9394 47.2061H17.8772V49.9996H17.0067V43.9104ZM17.8772 45.6995C17.8772 45.8878 17.8772 46.0448 17.9083 46.1703C18.0949 46.9864 18.4679 47.112 18.7167 47.112C19.4628 47.112 19.6805 46.0762 19.6805 44.9462C19.6805 43.7849 19.4007 42.8119 18.7167 42.8119C18.3125 42.8119 17.9705 43.3141 17.9083 43.8477C17.8772 43.9732 17.8772 44.1302 17.8772 44.2871V45.6995Z" fill="black"/>
<path d="M26.7689 42.1533V47.7717H25.8984V42.9066H24.3128V47.7717H23.4111V42.1533H26.7689Z" fill="black"/>
<path d="M31.4324 44.9462C31.4324 47.112 30.4375 47.8652 29.5669 47.8652C28.572 47.8652 27.7637 46.955 27.7637 44.9776C27.7637 42.9374 28.6653 42.0586 29.6291 42.0586C30.624 42.0586 31.4324 43.0002 31.4324 44.9462ZM28.6653 44.9462C28.6653 45.8878 28.8208 47.1433 29.6291 47.1433C30.3753 47.1433 30.5307 45.8251 30.5307 44.9462C30.5307 44.0988 30.3753 42.7491 29.598 42.7491C28.8208 42.7805 28.6653 44.0988 28.6653 44.9462Z" fill="black"/>
<path d="M33.2363 42.1525V44.0671C33.2363 45.0401 33.2363 45.8876 33.1741 46.7664H33.2052C33.4539 46.0131 33.7648 45.2284 34.0135 44.5693L34.9462 42.1211H35.879V47.7394H35.0706V45.8876C35.0706 44.6635 35.1017 44.0043 35.1639 43.1569H35.1328C34.9151 43.8474 34.6975 44.4751 34.4799 45.1029C34.2933 45.5737 33.7959 46.8606 33.3606 47.7394H32.459V42.1211H33.2363V42.1525Z" fill="black"/>
<path d="M39.7964 47.6142C39.6098 47.7397 39.2678 47.8339 38.8637 47.8339C37.6511 47.8339 36.8428 46.8609 36.8428 44.9776C36.8428 43.3769 37.6511 42.0586 39.0502 42.0586C39.3611 42.0586 39.672 42.1528 39.8275 42.2469L39.6409 42.9688C39.5166 42.9061 39.2989 42.8119 39.0191 42.8119C38.1175 42.8119 37.7444 43.8791 37.7444 44.9776C37.7444 46.2959 38.2419 47.0806 39.0502 47.0806C39.2989 47.0806 39.4855 47.0178 39.7031 46.9236L39.7964 47.6142Z" fill="black"/>
<path d="M41.4125 42.1533V44.6015H41.5369L42.9982 42.1533H43.9931L42.252 44.6957C42.9982 44.8212 43.4023 45.5118 43.5889 46.2964C43.7132 46.7673 43.8687 47.3636 44.0552 47.803H43.1536C42.9982 47.4578 42.8738 46.987 42.7494 46.4848C42.5318 45.7315 42.2209 45.2607 41.5058 45.2607H41.4125V47.803H40.542V42.1847H41.4125V42.1533Z" fill="black"/>
<path d="M47.1022 47.7712L47.04 47.1749H47.0089C46.7602 47.6143 46.3871 47.8654 45.8896 47.8654C45.1435 47.8654 44.5527 47.2376 44.5527 46.2646C44.5527 44.8522 45.672 44.2245 46.9156 44.2245V44.0361C46.9156 43.2828 46.7291 42.7493 46.014 42.7493C45.672 42.7493 45.3611 42.8748 45.0813 43.0317L44.8947 42.404C45.1124 42.2157 45.6409 42.0273 46.2005 42.0273C47.3198 42.0273 47.8173 42.7806 47.8173 44.0361V46.453C47.8173 46.8924 47.8173 47.3632 47.8794 47.7398H47.1022V47.7712ZM46.9778 44.8522C46.5114 44.8522 45.4544 44.9464 45.4544 46.1391C45.4544 46.861 45.8275 47.1435 46.1384 47.1435C46.5425 47.1435 46.8534 46.861 46.9778 46.296C47.0089 46.2019 47.0089 46.0763 47.0089 45.9821V44.8522H46.9778Z" fill="black"/>
<path d="M54.2533 42.1533V47.7717H53.3828V42.9066H51.7971V47.7717H50.8955V42.1533H54.2533Z" fill="black"/>
<path d="M55.4969 43.9104C55.4969 43.063 55.4658 42.5608 55.4658 42.1528H56.2431L56.3053 42.8747H56.3364C56.6473 42.2783 57.0825 42.0586 57.5178 42.0586C58.4816 42.0586 59.1345 43.0944 59.1345 44.9462C59.1345 47.0178 58.2951 47.8652 57.4245 47.8652C56.896 47.8652 56.6162 47.52 56.4607 47.2061H56.4296V49.9996H55.528V43.9104H55.4969ZM56.3674 45.6995C56.3674 45.8878 56.3674 46.0448 56.3985 46.1703C56.5851 46.9864 56.9582 47.112 57.2069 47.112C57.9531 47.112 58.1707 46.0762 58.1707 44.9462C58.1707 43.7849 57.8909 42.8119 57.2069 42.8119C56.8027 42.8119 56.4607 43.3141 56.3985 43.8477C56.3674 43.9732 56.3674 44.1302 56.3674 44.2871V45.6995Z" fill="black"/>
<path d="M63.4871 44.9462C63.4871 47.112 62.4922 47.8652 61.6216 47.8652C60.6267 47.8652 59.8184 46.955 59.8184 44.9776C59.8184 42.9374 60.72 42.0586 61.6838 42.0586C62.7098 42.0586 63.4871 43.0002 63.4871 44.9462ZM60.72 44.9462C60.72 45.8878 60.8754 47.1433 61.6838 47.1433C62.43 47.1433 62.5854 45.8251 62.5854 44.9462C62.5854 44.0988 62.43 42.7491 61.6527 42.7491C60.8754 42.7805 60.72 44.0988 60.72 44.9462Z" fill="black"/>
<path d="M67.8402 42.1533V47.7717H66.9697V42.9066H65.353V47.7717H64.4824V42.1533H67.8402Z" fill="black"/>
<path d="M71.2906 47.7712L71.2285 47.1749H71.1974C70.9486 47.6143 70.5756 47.8654 70.0781 47.8654C69.3319 47.8654 68.7412 47.2376 68.7412 46.2646C68.7412 44.8522 69.8605 44.2245 71.1041 44.2245V44.0361C71.1041 43.2828 70.9176 42.7493 70.2025 42.7493C69.8605 42.7493 69.5496 42.8748 69.2698 43.0317L69.0832 42.404C69.3008 42.2157 69.8294 42.0273 70.389 42.0273C71.5083 42.0273 72.0057 42.7806 72.0057 44.0361V46.453C72.0057 46.8924 72.0057 47.3632 72.0679 47.7398H71.2906V47.7712ZM71.1663 44.8522C70.6999 44.8522 69.6428 44.9464 69.6428 46.1391C69.6428 46.861 70.0159 47.1435 70.3268 47.1435C70.731 47.1435 71.0419 46.861 71.1663 46.296C71.1974 46.2019 71.1974 46.0763 71.1974 45.9821V44.8522H71.1663Z" fill="black"/>
<path d="M73.2811 42.1841C73.6231 42.1214 74.0894 42.0586 74.5247 42.0586C75.4574 42.0586 76.6078 42.3097 76.6078 43.4396C76.6078 44.0988 76.1414 44.601 75.4885 44.7893V44.8207C76.2969 44.9462 76.8254 45.4484 76.8254 46.2331C76.8254 47.5514 75.4885 47.8652 74.4004 47.8652C73.8718 47.8652 73.4676 47.8339 73.25 47.8025V42.1841H73.2811ZM74.1205 47.1747C74.2138 47.1747 74.4004 47.2061 74.5869 47.2061C75.2709 47.2061 75.9549 46.955 75.9549 46.2017C75.9549 45.4484 75.2087 45.1659 74.5247 45.1659H74.1516V47.1747H74.1205ZM74.1516 44.5382H74.5558C75.0843 44.5382 75.7683 44.1929 75.7683 43.5966C75.7683 42.9374 75.2398 42.7177 74.618 42.7177C74.4625 42.7177 74.3071 42.7491 74.1516 42.7491V44.5382Z" fill="black"/>
<path d="M78.6907 42.1533V47.0184H80.152V42.1533H81.0225V47.0184H82.4838V42.1533H83.3543V47.7717H77.7891V42.1533H78.6907Z" fill="black"/>
<path d="M85.4062 42.1525V44.0671C85.4062 45.0401 85.4062 45.8876 85.344 46.7664H85.3751C85.6238 46.0131 85.9658 45.2284 86.1834 44.5693L87.1162 42.1211H88.0489V47.7394H87.2405V45.8876C87.2405 44.6635 87.2716 44.0043 87.3338 43.1569H87.3027C87.0851 43.8474 86.8674 44.4751 86.6498 45.1029C86.4633 45.5737 85.9658 46.8606 85.5305 47.7394H84.6289V42.1211H85.4062V42.1525Z" fill="black"/>
<path d="M89.7584 42.1533L90.287 43.346C90.4424 43.6599 90.5357 44.0052 90.66 44.319H90.6911C90.8155 43.9738 90.9399 43.6285 91.0642 43.346L91.5617 42.1533H92.4633L91.1264 44.9154L92.4322 47.7717H91.4684L90.9399 46.5162C90.8155 46.2023 90.7222 45.9198 90.5668 45.5432H90.5357C90.4113 45.8884 90.287 46.1709 90.1626 46.5162L89.634 47.7717H88.7324L90.0693 44.9468L88.7946 42.1533H89.7584Z" fill="black"/>
<path d="M98.1534 42.1533V47.7717H97.2518V42.9066H96.0392V44.6957C96.0392 46.2964 95.9149 47.3322 95.1065 47.7403C94.92 47.8344 94.7334 47.8658 94.5158 47.8658L94.3604 47.1439C94.578 47.1125 94.7023 47.0184 94.8267 46.8614C95.1376 46.5475 95.1998 45.7315 95.1998 44.7271V42.1533H98.1534Z" fill="black"/>
<path d="M100.237 42.1528V44.5068H100.921C101.045 42.7805 101.853 42.0586 102.662 42.0586C103.625 42.0586 104.372 43.0002 104.372 44.9776C104.372 47.1433 103.408 47.8966 102.599 47.8966C101.698 47.8966 100.952 47.0806 100.889 45.2601H100.205V47.8025H99.335V42.1841H100.237V42.1528ZM103.532 44.9462C103.532 44.0988 103.377 42.7491 102.631 42.7491C101.915 42.7491 101.76 44.0674 101.76 44.9462C101.76 45.8878 101.947 47.1433 102.662 47.1433C103.377 47.1433 103.532 45.8251 103.532 44.9462Z" fill="black"/>
<path d="M108.724 42.1533V47.0811H109.19L109.128 49.2782H108.475L108.413 47.7716H105.521L105.459 49.2782H104.775L104.744 47.0811H105.117C105.335 46.7045 105.521 46.2964 105.646 45.8884C105.832 45.2607 105.895 44.5701 105.895 43.8168V42.1533H108.724ZM106.672 43.6913C106.672 44.476 106.641 45.2293 106.454 45.9198C106.361 46.3278 106.205 46.7045 105.988 47.0497H107.853V42.8438H106.672V43.6913Z" fill="black"/>
<path d="M110.652 45.0403C110.652 46.7666 111.336 47.1432 111.989 47.1432C112.362 47.1432 112.704 47.049 112.922 46.9235L113.046 47.5826C112.735 47.7709 112.269 47.8651 111.833 47.8651C110.496 47.8651 109.812 46.7666 109.812 45.0403C109.812 43.2198 110.559 42.0898 111.678 42.0898C112.828 42.0898 113.264 43.2826 113.264 44.5694C113.264 44.7892 113.264 44.9147 113.264 45.0716H110.652V45.0403ZM112.393 44.3811C112.424 43.2512 111.989 42.749 111.554 42.749C110.963 42.749 110.683 43.5964 110.652 44.3811H112.393Z" fill="black"/>
<path d="M115.005 42.1529V44.0675C115.005 45.0405 115.005 45.888 114.943 46.7668H114.974C115.222 46.0135 115.564 45.2288 115.782 44.5697L116.715 42.1215H117.648V47.7398H116.839V45.888C116.839 44.6639 116.87 44.0047 116.932 43.1573H116.901C116.684 43.8478 116.466 44.4756 116.248 45.1033C116.062 45.5741 115.564 46.861 115.129 47.7398H114.228V42.1215H115.005V42.1529ZM115.254 40.0186C115.285 40.5208 115.502 40.8032 115.938 40.8032C116.373 40.8032 116.559 40.4894 116.622 40.0186H117.243C117.15 40.9288 116.653 41.3054 115.906 41.3054C115.191 41.3054 114.725 40.9288 114.632 40.0186H115.254Z" fill="black"/>
</g>
<defs>
<clipPath id="clip0_500_1951">
<rect width="117.647" height="50" fill="white"/>
</clipPath>
</defs>
</svg>
